G04 #@! TF.GenerationSoftware,KiCad,Pcbnew,7.0.5*
G04 #@! TF.CreationDate,2023-10-08T13:51:06+02:00*
G04 #@! TF.ProjectId,ZXROM-4in1,5a58524f-4d2d-4346-996e-312e6b696361,1.1*
G04 #@! TF.SameCoordinates,Original*
G04 #@! TF.FileFunction,Legend,Top*
G04 #@! TF.FilePolarity,Positive*
%FSLAX46Y46*%
G04 Gerber Fmt 4.6, Leading zero omitted, Abs format (unit mm)*
G04 Created by KiCad (PCBNEW 7.0.5) date 2023-10-08 13:51:06*
%MOMM*%
%LPD*%
G01*
G04 APERTURE LIST*
%ADD10C,0.300000*%
%ADD11C,0.150000*%
%ADD12C,0.120000*%
%ADD13C,2.100000*%
%ADD14R,2.100000X2.100000*%
%ADD15R,1.600000X1.600000*%
%ADD16O,1.600000X1.600000*%
%ADD17C,1.600000*%
G04 APERTURE END LIST*
D10*
X134566429Y-80987828D02*
X134623572Y-80930685D01*
X134623572Y-80930685D02*
X134737858Y-80873542D01*
X134737858Y-80873542D02*
X135023572Y-80873542D01*
X135023572Y-80873542D02*
X135137858Y-80930685D01*
X135137858Y-80930685D02*
X135195000Y-80987828D01*
X135195000Y-80987828D02*
X135252143Y-81102114D01*
X135252143Y-81102114D02*
X135252143Y-81216400D01*
X135252143Y-81216400D02*
X135195000Y-81387828D01*
X135195000Y-81387828D02*
X134509286Y-82073542D01*
X134509286Y-82073542D02*
X135252143Y-82073542D01*
X135652143Y-80873542D02*
X136452143Y-80873542D01*
X136452143Y-80873542D02*
X135937857Y-82073542D01*
X137595000Y-81959257D02*
X137537857Y-82016400D01*
X137537857Y-82016400D02*
X137366429Y-82073542D01*
X137366429Y-82073542D02*
X137252143Y-82073542D01*
X137252143Y-82073542D02*
X137080714Y-82016400D01*
X137080714Y-82016400D02*
X136966429Y-81902114D01*
X136966429Y-81902114D02*
X136909286Y-81787828D01*
X136909286Y-81787828D02*
X136852143Y-81559257D01*
X136852143Y-81559257D02*
X136852143Y-81387828D01*
X136852143Y-81387828D02*
X136909286Y-81159257D01*
X136909286Y-81159257D02*
X136966429Y-81044971D01*
X136966429Y-81044971D02*
X137080714Y-80930685D01*
X137080714Y-80930685D02*
X137252143Y-80873542D01*
X137252143Y-80873542D02*
X137366429Y-80873542D01*
X137366429Y-80873542D02*
X137537857Y-80930685D01*
X137537857Y-80930685D02*
X137595000Y-80987828D01*
X138680714Y-80873542D02*
X138109286Y-80873542D01*
X138109286Y-80873542D02*
X138052143Y-81444971D01*
X138052143Y-81444971D02*
X138109286Y-81387828D01*
X138109286Y-81387828D02*
X138223572Y-81330685D01*
X138223572Y-81330685D02*
X138509286Y-81330685D01*
X138509286Y-81330685D02*
X138623572Y-81387828D01*
X138623572Y-81387828D02*
X138680714Y-81444971D01*
X138680714Y-81444971D02*
X138737857Y-81559257D01*
X138737857Y-81559257D02*
X138737857Y-81844971D01*
X138737857Y-81844971D02*
X138680714Y-81959257D01*
X138680714Y-81959257D02*
X138623572Y-82016400D01*
X138623572Y-82016400D02*
X138509286Y-82073542D01*
X138509286Y-82073542D02*
X138223572Y-82073542D01*
X138223572Y-82073542D02*
X138109286Y-82016400D01*
X138109286Y-82016400D02*
X138052143Y-81959257D01*
X139880714Y-82073542D02*
X139195000Y-82073542D01*
X139537857Y-82073542D02*
X139537857Y-80873542D01*
X139537857Y-80873542D02*
X139423571Y-81044971D01*
X139423571Y-81044971D02*
X139309286Y-81159257D01*
X139309286Y-81159257D02*
X139195000Y-81216400D01*
X140337857Y-80987828D02*
X140395000Y-80930685D01*
X140395000Y-80930685D02*
X140509286Y-80873542D01*
X140509286Y-80873542D02*
X140795000Y-80873542D01*
X140795000Y-80873542D02*
X140909286Y-80930685D01*
X140909286Y-80930685D02*
X140966428Y-80987828D01*
X140966428Y-80987828D02*
X141023571Y-81102114D01*
X141023571Y-81102114D02*
X141023571Y-81216400D01*
X141023571Y-81216400D02*
X140966428Y-81387828D01*
X140966428Y-81387828D02*
X140280714Y-82073542D01*
X140280714Y-82073542D02*
X141023571Y-82073542D01*
X134293428Y-91083542D02*
X135093428Y-91083542D01*
X135093428Y-91083542D02*
X134293428Y-92283542D01*
X134293428Y-92283542D02*
X135093428Y-92283542D01*
X135436285Y-91083542D02*
X136236285Y-92283542D01*
X136236285Y-91083542D02*
X135436285Y-92283542D01*
X136693428Y-91826400D02*
X137607714Y-91826400D01*
X138864856Y-92283542D02*
X138464856Y-91712114D01*
X138179142Y-92283542D02*
X138179142Y-91083542D01*
X138179142Y-91083542D02*
X138636285Y-91083542D01*
X138636285Y-91083542D02*
X138750570Y-91140685D01*
X138750570Y-91140685D02*
X138807713Y-91197828D01*
X138807713Y-91197828D02*
X138864856Y-91312114D01*
X138864856Y-91312114D02*
X138864856Y-91483542D01*
X138864856Y-91483542D02*
X138807713Y-91597828D01*
X138807713Y-91597828D02*
X138750570Y-91654971D01*
X138750570Y-91654971D02*
X138636285Y-91712114D01*
X138636285Y-91712114D02*
X138179142Y-91712114D01*
X139607713Y-91083542D02*
X139836285Y-91083542D01*
X139836285Y-91083542D02*
X139950570Y-91140685D01*
X139950570Y-91140685D02*
X140064856Y-91254971D01*
X140064856Y-91254971D02*
X140121999Y-91483542D01*
X140121999Y-91483542D02*
X140121999Y-91883542D01*
X140121999Y-91883542D02*
X140064856Y-92112114D01*
X140064856Y-92112114D02*
X139950570Y-92226400D01*
X139950570Y-92226400D02*
X139836285Y-92283542D01*
X139836285Y-92283542D02*
X139607713Y-92283542D01*
X139607713Y-92283542D02*
X139493428Y-92226400D01*
X139493428Y-92226400D02*
X139379142Y-92112114D01*
X139379142Y-92112114D02*
X139321999Y-91883542D01*
X139321999Y-91883542D02*
X139321999Y-91483542D01*
X139321999Y-91483542D02*
X139379142Y-91254971D01*
X139379142Y-91254971D02*
X139493428Y-91140685D01*
X139493428Y-91140685D02*
X139607713Y-91083542D01*
X140636285Y-92283542D02*
X140636285Y-91083542D01*
X140636285Y-91083542D02*
X141036285Y-91940685D01*
X141036285Y-91940685D02*
X141436285Y-91083542D01*
X141436285Y-91083542D02*
X141436285Y-92283542D01*
X136750572Y-93415542D02*
X136750572Y-94215542D01*
X136464857Y-92958400D02*
X136179143Y-93815542D01*
X136179143Y-93815542D02*
X136922000Y-93815542D01*
X137379143Y-94215542D02*
X137379143Y-93415542D01*
X137379143Y-93015542D02*
X137322000Y-93072685D01*
X137322000Y-93072685D02*
X137379143Y-93129828D01*
X137379143Y-93129828D02*
X137436286Y-93072685D01*
X137436286Y-93072685D02*
X137379143Y-93015542D01*
X137379143Y-93015542D02*
X137379143Y-93129828D01*
X137950572Y-93415542D02*
X137950572Y-94215542D01*
X137950572Y-93529828D02*
X138007715Y-93472685D01*
X138007715Y-93472685D02*
X138122000Y-93415542D01*
X138122000Y-93415542D02*
X138293429Y-93415542D01*
X138293429Y-93415542D02*
X138407715Y-93472685D01*
X138407715Y-93472685D02*
X138464858Y-93586971D01*
X138464858Y-93586971D02*
X138464858Y-94215542D01*
X139664857Y-94215542D02*
X138979143Y-94215542D01*
X139322000Y-94215542D02*
X139322000Y-93015542D01*
X139322000Y-93015542D02*
X139207714Y-93186971D01*
X139207714Y-93186971D02*
X139093429Y-93301257D01*
X139093429Y-93301257D02*
X138979143Y-93358400D01*
D11*
X139033429Y-99356152D02*
X139271524Y-100022819D01*
X139271524Y-100022819D02*
X139509619Y-99356152D01*
X140414381Y-100022819D02*
X139842953Y-100022819D01*
X140128667Y-100022819D02*
X140128667Y-99022819D01*
X140128667Y-99022819D02*
X140033429Y-99165676D01*
X140033429Y-99165676D02*
X139938191Y-99260914D01*
X139938191Y-99260914D02*
X139842953Y-99308533D01*
X140842953Y-99927580D02*
X140890572Y-99975200D01*
X140890572Y-99975200D02*
X140842953Y-100022819D01*
X140842953Y-100022819D02*
X140795334Y-99975200D01*
X140795334Y-99975200D02*
X140842953Y-99927580D01*
X140842953Y-99927580D02*
X140842953Y-100022819D01*
X141842952Y-100022819D02*
X141271524Y-100022819D01*
X141557238Y-100022819D02*
X141557238Y-99022819D01*
X141557238Y-99022819D02*
X141462000Y-99165676D01*
X141462000Y-99165676D02*
X141366762Y-99260914D01*
X141366762Y-99260914D02*
X141271524Y-99308533D01*
D10*
X136623571Y-79533542D02*
X136623571Y-78333542D01*
X137880714Y-79419257D02*
X137823571Y-79476400D01*
X137823571Y-79476400D02*
X137652143Y-79533542D01*
X137652143Y-79533542D02*
X137537857Y-79533542D01*
X137537857Y-79533542D02*
X137366428Y-79476400D01*
X137366428Y-79476400D02*
X137252143Y-79362114D01*
X137252143Y-79362114D02*
X137195000Y-79247828D01*
X137195000Y-79247828D02*
X137137857Y-79019257D01*
X137137857Y-79019257D02*
X137137857Y-78847828D01*
X137137857Y-78847828D02*
X137195000Y-78619257D01*
X137195000Y-78619257D02*
X137252143Y-78504971D01*
X137252143Y-78504971D02*
X137366428Y-78390685D01*
X137366428Y-78390685D02*
X137537857Y-78333542D01*
X137537857Y-78333542D02*
X137652143Y-78333542D01*
X137652143Y-78333542D02*
X137823571Y-78390685D01*
X137823571Y-78390685D02*
X137880714Y-78447828D01*
X138966428Y-78333542D02*
X138395000Y-78333542D01*
X138395000Y-78333542D02*
X138337857Y-78904971D01*
X138337857Y-78904971D02*
X138395000Y-78847828D01*
X138395000Y-78847828D02*
X138509286Y-78790685D01*
X138509286Y-78790685D02*
X138795000Y-78790685D01*
X138795000Y-78790685D02*
X138909286Y-78847828D01*
X138909286Y-78847828D02*
X138966428Y-78904971D01*
X138966428Y-78904971D02*
X139023571Y-79019257D01*
X139023571Y-79019257D02*
X139023571Y-79304971D01*
X139023571Y-79304971D02*
X138966428Y-79419257D01*
X138966428Y-79419257D02*
X138909286Y-79476400D01*
X138909286Y-79476400D02*
X138795000Y-79533542D01*
X138795000Y-79533542D02*
X138509286Y-79533542D01*
X138509286Y-79533542D02*
X138395000Y-79476400D01*
X138395000Y-79476400D02*
X138337857Y-79419257D01*
D12*
X156330000Y-79900000D02*
X154947000Y-79900000D01*
X156330000Y-79900000D02*
X156330000Y-81284000D01*
X156090000Y-80140000D02*
X148710000Y-80140000D01*
X156090000Y-80140000D02*
X156090000Y-90040000D01*
X148710000Y-80140000D02*
X148710000Y-90040000D01*
X154305000Y-83060000D02*
X153035000Y-83060000D01*
X154185000Y-83060000D02*
X154185000Y-84413333D01*
X154065000Y-83060000D02*
X154065000Y-84413333D01*
X153945000Y-83060000D02*
X153945000Y-84413333D01*
X153825000Y-83060000D02*
X153825000Y-84413333D01*
X153705000Y-83060000D02*
X153705000Y-84413333D01*
X153585000Y-83060000D02*
X153585000Y-84413333D01*
X153465000Y-83060000D02*
X153465000Y-84413333D01*
X153345000Y-83060000D02*
X153345000Y-84413333D01*
X153225000Y-83060000D02*
X153225000Y-84413333D01*
X153105000Y-83060000D02*
X153105000Y-84413333D01*
X153035000Y-83060000D02*
X153035000Y-87120000D01*
X151765000Y-83060000D02*
X150495000Y-83060000D01*
X151645000Y-83060000D02*
X151645000Y-84413333D01*
X151525000Y-83060000D02*
X151525000Y-84413333D01*
X151405000Y-83060000D02*
X151405000Y-84413333D01*
X151285000Y-83060000D02*
X151285000Y-84413333D01*
X151165000Y-83060000D02*
X151165000Y-84413333D01*
X151045000Y-83060000D02*
X151045000Y-84413333D01*
X150925000Y-83060000D02*
X150925000Y-84413333D01*
X150805000Y-83060000D02*
X150805000Y-84413333D01*
X150685000Y-83060000D02*
X150685000Y-84413333D01*
X150565000Y-83060000D02*
X150565000Y-84413333D01*
X150495000Y-83060000D02*
X150495000Y-87120000D01*
X154305000Y-84413333D02*
X153035000Y-84413333D01*
X151765000Y-84413333D02*
X150495000Y-84413333D01*
X154305000Y-87120000D02*
X154305000Y-83060000D01*
X153035000Y-87120000D02*
X154305000Y-87120000D01*
X151765000Y-87120000D02*
X151765000Y-83060000D01*
X150495000Y-87120000D02*
X151765000Y-87120000D01*
X156090000Y-90040000D02*
X148710000Y-90040000D01*
X130700000Y-67250000D02*
X130700000Y-102930000D01*
X130700000Y-102930000D02*
X143620000Y-102930000D01*
X136160000Y-67250000D02*
X130700000Y-67250000D01*
X143620000Y-67250000D02*
X138160000Y-67250000D01*
X143620000Y-102930000D02*
X143620000Y-67250000D01*
X136160000Y-67250000D02*
G75*
G03*
X138160000Y-67250000I1000000J0D01*
G01*
%LPC*%
D13*
X132080000Y-68580000D03*
X132080000Y-71120000D03*
X132080000Y-73660000D03*
X132080000Y-76200000D03*
X132080000Y-78740000D03*
X132080000Y-81280000D03*
X132080000Y-83820000D03*
X132080000Y-86360000D03*
X132080000Y-88900000D03*
X132080000Y-91440000D03*
X132080000Y-93980000D03*
X132080000Y-96520000D03*
X132080000Y-99060000D03*
D14*
X132080000Y-101600000D03*
D15*
X153670000Y-81280000D03*
D16*
X151130000Y-81280000D03*
X151130000Y-88900000D03*
X153670000Y-88900000D03*
D13*
X147320000Y-101600000D03*
X147320000Y-99060000D03*
X147320000Y-96520000D03*
X147320000Y-93980000D03*
X147320000Y-91440000D03*
X147320000Y-88900000D03*
X147320000Y-86360000D03*
X147320000Y-83820000D03*
X147320000Y-81280000D03*
X147320000Y-78740000D03*
X147320000Y-76200000D03*
X147320000Y-73660000D03*
X147320000Y-71120000D03*
X147320000Y-68580000D03*
D17*
X129540000Y-68580000D03*
D16*
X129540000Y-71120000D03*
X129540000Y-73660000D03*
X129540000Y-76200000D03*
X129540000Y-78740000D03*
X129540000Y-81280000D03*
X129540000Y-83820000D03*
X129540000Y-86360000D03*
X129540000Y-88900000D03*
X129540000Y-91440000D03*
X129540000Y-93980000D03*
X129540000Y-96520000D03*
X129540000Y-99060000D03*
D15*
X129540000Y-101600000D03*
D16*
X144780000Y-101600000D03*
X144780000Y-99060000D03*
X144780000Y-96520000D03*
X144780000Y-93980000D03*
X144780000Y-91440000D03*
X144780000Y-88900000D03*
X144780000Y-86360000D03*
X144780000Y-83820000D03*
X144780000Y-81280000D03*
X144780000Y-78740000D03*
X144780000Y-76200000D03*
X144780000Y-73660000D03*
X144780000Y-71120000D03*
X144780000Y-68580000D03*
D17*
X134620000Y-76200000D03*
D16*
X142240000Y-76200000D03*
D17*
X134620000Y-73660000D03*
D16*
X142240000Y-73660000D03*
D15*
X140970000Y-88900000D03*
D16*
X140970000Y-96520000D03*
D17*
X134620000Y-88900000D03*
D16*
X134620000Y-96520000D03*
D15*
X137795000Y-88900000D03*
D16*
X137795000Y-96520000D03*
%LPD*%
M02*
