G04 #@! TF.GenerationSoftware,KiCad,Pcbnew,7.0.5*
G04 #@! TF.CreationDate,2023-10-08T13:51:06+02:00*
G04 #@! TF.ProjectId,ZXROM-4in1,5a58524f-4d2d-4346-996e-312e6b696361,1.1*
G04 #@! TF.SameCoordinates,Original*
G04 #@! TF.FileFunction,Legend,Bot*
G04 #@! TF.FilePolarity,Positive*
%FSLAX46Y46*%
G04 Gerber Fmt 4.6, Leading zero omitted, Abs format (unit mm)*
G04 Created by KiCad (PCBNEW 7.0.5) date 2023-10-08 13:51:06*
%MOMM*%
%LPD*%
G01*
G04 APERTURE LIST*
%ADD10C,0.150000*%
%ADD11C,0.120000*%
%ADD12C,2.100000*%
%ADD13R,2.100000X2.100000*%
%ADD14R,1.600000X1.600000*%
%ADD15O,1.600000X1.600000*%
%ADD16C,1.600000*%
G04 APERTURE END LIST*
D10*
X141045952Y-81878295D02*
X141045952Y-81078295D01*
X141045952Y-81078295D02*
X140741190Y-81078295D01*
X140741190Y-81078295D02*
X140665000Y-81116390D01*
X140665000Y-81116390D02*
X140626905Y-81154485D01*
X140626905Y-81154485D02*
X140588809Y-81230676D01*
X140588809Y-81230676D02*
X140588809Y-81344961D01*
X140588809Y-81344961D02*
X140626905Y-81421152D01*
X140626905Y-81421152D02*
X140665000Y-81459247D01*
X140665000Y-81459247D02*
X140741190Y-81497342D01*
X140741190Y-81497342D02*
X141045952Y-81497342D01*
X139788809Y-81802104D02*
X139826905Y-81840200D01*
X139826905Y-81840200D02*
X139941190Y-81878295D01*
X139941190Y-81878295D02*
X140017381Y-81878295D01*
X140017381Y-81878295D02*
X140131667Y-81840200D01*
X140131667Y-81840200D02*
X140207857Y-81764009D01*
X140207857Y-81764009D02*
X140245952Y-81687819D01*
X140245952Y-81687819D02*
X140284048Y-81535438D01*
X140284048Y-81535438D02*
X140284048Y-81421152D01*
X140284048Y-81421152D02*
X140245952Y-81268771D01*
X140245952Y-81268771D02*
X140207857Y-81192580D01*
X140207857Y-81192580D02*
X140131667Y-81116390D01*
X140131667Y-81116390D02*
X140017381Y-81078295D01*
X140017381Y-81078295D02*
X139941190Y-81078295D01*
X139941190Y-81078295D02*
X139826905Y-81116390D01*
X139826905Y-81116390D02*
X139788809Y-81154485D01*
X139179286Y-81459247D02*
X139065000Y-81497342D01*
X139065000Y-81497342D02*
X139026905Y-81535438D01*
X139026905Y-81535438D02*
X138988809Y-81611628D01*
X138988809Y-81611628D02*
X138988809Y-81725914D01*
X138988809Y-81725914D02*
X139026905Y-81802104D01*
X139026905Y-81802104D02*
X139065000Y-81840200D01*
X139065000Y-81840200D02*
X139141190Y-81878295D01*
X139141190Y-81878295D02*
X139445952Y-81878295D01*
X139445952Y-81878295D02*
X139445952Y-81078295D01*
X139445952Y-81078295D02*
X139179286Y-81078295D01*
X139179286Y-81078295D02*
X139103095Y-81116390D01*
X139103095Y-81116390D02*
X139065000Y-81154485D01*
X139065000Y-81154485D02*
X139026905Y-81230676D01*
X139026905Y-81230676D02*
X139026905Y-81306866D01*
X139026905Y-81306866D02*
X139065000Y-81383057D01*
X139065000Y-81383057D02*
X139103095Y-81421152D01*
X139103095Y-81421152D02*
X139179286Y-81459247D01*
X139179286Y-81459247D02*
X139445952Y-81459247D01*
X138036428Y-81878295D02*
X138036428Y-81078295D01*
X138036428Y-81383057D02*
X137960238Y-81344961D01*
X137960238Y-81344961D02*
X137807857Y-81344961D01*
X137807857Y-81344961D02*
X137731666Y-81383057D01*
X137731666Y-81383057D02*
X137693571Y-81421152D01*
X137693571Y-81421152D02*
X137655476Y-81497342D01*
X137655476Y-81497342D02*
X137655476Y-81725914D01*
X137655476Y-81725914D02*
X137693571Y-81802104D01*
X137693571Y-81802104D02*
X137731666Y-81840200D01*
X137731666Y-81840200D02*
X137807857Y-81878295D01*
X137807857Y-81878295D02*
X137960238Y-81878295D01*
X137960238Y-81878295D02*
X138036428Y-81840200D01*
X137388809Y-81344961D02*
X137198333Y-81878295D01*
X137007856Y-81344961D02*
X137198333Y-81878295D01*
X137198333Y-81878295D02*
X137274523Y-82068771D01*
X137274523Y-82068771D02*
X137312618Y-82106866D01*
X137312618Y-82106866D02*
X137388809Y-82144961D01*
X143122143Y-83166295D02*
X143122143Y-82366295D01*
X143122143Y-82366295D02*
X142817381Y-82366295D01*
X142817381Y-82366295D02*
X142741191Y-82404390D01*
X142741191Y-82404390D02*
X142703096Y-82442485D01*
X142703096Y-82442485D02*
X142665000Y-82518676D01*
X142665000Y-82518676D02*
X142665000Y-82632961D01*
X142665000Y-82632961D02*
X142703096Y-82709152D01*
X142703096Y-82709152D02*
X142741191Y-82747247D01*
X142741191Y-82747247D02*
X142817381Y-82785342D01*
X142817381Y-82785342D02*
X143122143Y-82785342D01*
X141979286Y-83166295D02*
X141979286Y-82747247D01*
X141979286Y-82747247D02*
X142017381Y-82671057D01*
X142017381Y-82671057D02*
X142093572Y-82632961D01*
X142093572Y-82632961D02*
X142245953Y-82632961D01*
X142245953Y-82632961D02*
X142322143Y-82671057D01*
X141979286Y-83128200D02*
X142055477Y-83166295D01*
X142055477Y-83166295D02*
X142245953Y-83166295D01*
X142245953Y-83166295D02*
X142322143Y-83128200D01*
X142322143Y-83128200D02*
X142360239Y-83052009D01*
X142360239Y-83052009D02*
X142360239Y-82975819D01*
X142360239Y-82975819D02*
X142322143Y-82899628D01*
X142322143Y-82899628D02*
X142245953Y-82861533D01*
X142245953Y-82861533D02*
X142055477Y-82861533D01*
X142055477Y-82861533D02*
X141979286Y-82823438D01*
X141674524Y-82632961D02*
X141522143Y-83166295D01*
X141522143Y-83166295D02*
X141369762Y-82785342D01*
X141369762Y-82785342D02*
X141217381Y-83166295D01*
X141217381Y-83166295D02*
X141065000Y-82632961D01*
X140455476Y-83128200D02*
X140531667Y-83166295D01*
X140531667Y-83166295D02*
X140684048Y-83166295D01*
X140684048Y-83166295D02*
X140760238Y-83128200D01*
X140760238Y-83128200D02*
X140798334Y-83052009D01*
X140798334Y-83052009D02*
X140798334Y-82747247D01*
X140798334Y-82747247D02*
X140760238Y-82671057D01*
X140760238Y-82671057D02*
X140684048Y-82632961D01*
X140684048Y-82632961D02*
X140531667Y-82632961D01*
X140531667Y-82632961D02*
X140455476Y-82671057D01*
X140455476Y-82671057D02*
X140417381Y-82747247D01*
X140417381Y-82747247D02*
X140417381Y-82823438D01*
X140417381Y-82823438D02*
X140798334Y-82899628D01*
X139960239Y-83166295D02*
X140036429Y-83128200D01*
X140036429Y-83128200D02*
X140074524Y-83052009D01*
X140074524Y-83052009D02*
X140074524Y-82366295D01*
X139045952Y-83166295D02*
X139045952Y-82366295D01*
X139045952Y-82366295D02*
X138779286Y-82937723D01*
X138779286Y-82937723D02*
X138512619Y-82366295D01*
X138512619Y-82366295D02*
X138512619Y-83166295D01*
X137788809Y-83166295D02*
X137788809Y-82747247D01*
X137788809Y-82747247D02*
X137826904Y-82671057D01*
X137826904Y-82671057D02*
X137903095Y-82632961D01*
X137903095Y-82632961D02*
X138055476Y-82632961D01*
X138055476Y-82632961D02*
X138131666Y-82671057D01*
X137788809Y-83128200D02*
X137865000Y-83166295D01*
X137865000Y-83166295D02*
X138055476Y-83166295D01*
X138055476Y-83166295D02*
X138131666Y-83128200D01*
X138131666Y-83128200D02*
X138169762Y-83052009D01*
X138169762Y-83052009D02*
X138169762Y-82975819D01*
X138169762Y-82975819D02*
X138131666Y-82899628D01*
X138131666Y-82899628D02*
X138055476Y-82861533D01*
X138055476Y-82861533D02*
X137865000Y-82861533D01*
X137865000Y-82861533D02*
X137788809Y-82823438D01*
X137407856Y-82632961D02*
X137407856Y-83166295D01*
X137407856Y-82709152D02*
X137369761Y-82671057D01*
X137369761Y-82671057D02*
X137293571Y-82632961D01*
X137293571Y-82632961D02*
X137179285Y-82632961D01*
X137179285Y-82632961D02*
X137103094Y-82671057D01*
X137103094Y-82671057D02*
X137064999Y-82747247D01*
X137064999Y-82747247D02*
X137064999Y-83166295D01*
X136341189Y-83166295D02*
X136341189Y-82366295D01*
X136341189Y-83128200D02*
X136417380Y-83166295D01*
X136417380Y-83166295D02*
X136569761Y-83166295D01*
X136569761Y-83166295D02*
X136645951Y-83128200D01*
X136645951Y-83128200D02*
X136684046Y-83090104D01*
X136684046Y-83090104D02*
X136722142Y-83013914D01*
X136722142Y-83013914D02*
X136722142Y-82785342D01*
X136722142Y-82785342D02*
X136684046Y-82709152D01*
X136684046Y-82709152D02*
X136645951Y-82671057D01*
X136645951Y-82671057D02*
X136569761Y-82632961D01*
X136569761Y-82632961D02*
X136417380Y-82632961D01*
X136417380Y-82632961D02*
X136341189Y-82671057D01*
X135655474Y-83128200D02*
X135731665Y-83166295D01*
X135731665Y-83166295D02*
X135884046Y-83166295D01*
X135884046Y-83166295D02*
X135960236Y-83128200D01*
X135960236Y-83128200D02*
X135998332Y-83052009D01*
X135998332Y-83052009D02*
X135998332Y-82747247D01*
X135998332Y-82747247D02*
X135960236Y-82671057D01*
X135960236Y-82671057D02*
X135884046Y-82632961D01*
X135884046Y-82632961D02*
X135731665Y-82632961D01*
X135731665Y-82632961D02*
X135655474Y-82671057D01*
X135655474Y-82671057D02*
X135617379Y-82747247D01*
X135617379Y-82747247D02*
X135617379Y-82823438D01*
X135617379Y-82823438D02*
X135998332Y-82899628D01*
X135312618Y-83128200D02*
X135236427Y-83166295D01*
X135236427Y-83166295D02*
X135084046Y-83166295D01*
X135084046Y-83166295D02*
X135007856Y-83128200D01*
X135007856Y-83128200D02*
X134969760Y-83052009D01*
X134969760Y-83052009D02*
X134969760Y-83013914D01*
X134969760Y-83013914D02*
X135007856Y-82937723D01*
X135007856Y-82937723D02*
X135084046Y-82899628D01*
X135084046Y-82899628D02*
X135198332Y-82899628D01*
X135198332Y-82899628D02*
X135274522Y-82861533D01*
X135274522Y-82861533D02*
X135312618Y-82785342D01*
X135312618Y-82785342D02*
X135312618Y-82747247D01*
X135312618Y-82747247D02*
X135274522Y-82671057D01*
X135274522Y-82671057D02*
X135198332Y-82632961D01*
X135198332Y-82632961D02*
X135084046Y-82632961D01*
X135084046Y-82632961D02*
X135007856Y-82671057D01*
X141522142Y-84454295D02*
X141522142Y-83654295D01*
X141522142Y-84416200D02*
X141598333Y-84454295D01*
X141598333Y-84454295D02*
X141750714Y-84454295D01*
X141750714Y-84454295D02*
X141826904Y-84416200D01*
X141826904Y-84416200D02*
X141864999Y-84378104D01*
X141864999Y-84378104D02*
X141903095Y-84301914D01*
X141903095Y-84301914D02*
X141903095Y-84073342D01*
X141903095Y-84073342D02*
X141864999Y-83997152D01*
X141864999Y-83997152D02*
X141826904Y-83959057D01*
X141826904Y-83959057D02*
X141750714Y-83920961D01*
X141750714Y-83920961D02*
X141598333Y-83920961D01*
X141598333Y-83920961D02*
X141522142Y-83959057D01*
X140836427Y-84416200D02*
X140912618Y-84454295D01*
X140912618Y-84454295D02*
X141064999Y-84454295D01*
X141064999Y-84454295D02*
X141141189Y-84416200D01*
X141141189Y-84416200D02*
X141179285Y-84340009D01*
X141179285Y-84340009D02*
X141179285Y-84035247D01*
X141179285Y-84035247D02*
X141141189Y-83959057D01*
X141141189Y-83959057D02*
X141064999Y-83920961D01*
X141064999Y-83920961D02*
X140912618Y-83920961D01*
X140912618Y-83920961D02*
X140836427Y-83959057D01*
X140836427Y-83959057D02*
X140798332Y-84035247D01*
X140798332Y-84035247D02*
X140798332Y-84111438D01*
X140798332Y-84111438D02*
X141179285Y-84187628D01*
X140531666Y-83920961D02*
X140341190Y-84454295D01*
X140341190Y-84454295D02*
X140150713Y-83920961D01*
X139922142Y-83920961D02*
X139503094Y-83920961D01*
X139503094Y-83920961D02*
X139922142Y-84454295D01*
X139922142Y-84454295D02*
X139503094Y-84454295D01*
X139198332Y-84454295D02*
X139198332Y-83920961D01*
X139198332Y-83654295D02*
X139236428Y-83692390D01*
X139236428Y-83692390D02*
X139198332Y-83730485D01*
X139198332Y-83730485D02*
X139160237Y-83692390D01*
X139160237Y-83692390D02*
X139198332Y-83654295D01*
X139198332Y-83654295D02*
X139198332Y-83730485D01*
X138817380Y-83920961D02*
X138817380Y-84454295D01*
X138817380Y-83997152D02*
X138779285Y-83959057D01*
X138779285Y-83959057D02*
X138703095Y-83920961D01*
X138703095Y-83920961D02*
X138588809Y-83920961D01*
X138588809Y-83920961D02*
X138512618Y-83959057D01*
X138512618Y-83959057D02*
X138474523Y-84035247D01*
X138474523Y-84035247D02*
X138474523Y-84454295D01*
X137788808Y-84416200D02*
X137864999Y-84454295D01*
X137864999Y-84454295D02*
X138017380Y-84454295D01*
X138017380Y-84454295D02*
X138093570Y-84416200D01*
X138093570Y-84416200D02*
X138131666Y-84340009D01*
X138131666Y-84340009D02*
X138131666Y-84035247D01*
X138131666Y-84035247D02*
X138093570Y-83959057D01*
X138093570Y-83959057D02*
X138017380Y-83920961D01*
X138017380Y-83920961D02*
X137864999Y-83920961D01*
X137864999Y-83920961D02*
X137788808Y-83959057D01*
X137788808Y-83959057D02*
X137750713Y-84035247D01*
X137750713Y-84035247D02*
X137750713Y-84111438D01*
X137750713Y-84111438D02*
X138131666Y-84187628D01*
X137407856Y-84378104D02*
X137369761Y-84416200D01*
X137369761Y-84416200D02*
X137407856Y-84454295D01*
X137407856Y-84454295D02*
X137445952Y-84416200D01*
X137445952Y-84416200D02*
X137407856Y-84378104D01*
X137407856Y-84378104D02*
X137407856Y-84454295D01*
X137026904Y-83920961D02*
X137026904Y-84720961D01*
X137026904Y-83959057D02*
X136950714Y-83920961D01*
X136950714Y-83920961D02*
X136798333Y-83920961D01*
X136798333Y-83920961D02*
X136722142Y-83959057D01*
X136722142Y-83959057D02*
X136684047Y-83997152D01*
X136684047Y-83997152D02*
X136645952Y-84073342D01*
X136645952Y-84073342D02*
X136645952Y-84301914D01*
X136645952Y-84301914D02*
X136684047Y-84378104D01*
X136684047Y-84378104D02*
X136722142Y-84416200D01*
X136722142Y-84416200D02*
X136798333Y-84454295D01*
X136798333Y-84454295D02*
X136950714Y-84454295D01*
X136950714Y-84454295D02*
X137026904Y-84416200D01*
X136188809Y-84454295D02*
X136264999Y-84416200D01*
X136264999Y-84416200D02*
X136303094Y-84340009D01*
X136303094Y-84340009D02*
X136303094Y-83654295D01*
X136056666Y-78940819D02*
X136389999Y-78464628D01*
X136628094Y-78940819D02*
X136628094Y-77940819D01*
X136628094Y-77940819D02*
X136247142Y-77940819D01*
X136247142Y-77940819D02*
X136151904Y-77988438D01*
X136151904Y-77988438D02*
X136104285Y-78036057D01*
X136104285Y-78036057D02*
X136056666Y-78131295D01*
X136056666Y-78131295D02*
X136056666Y-78274152D01*
X136056666Y-78274152D02*
X136104285Y-78369390D01*
X136104285Y-78369390D02*
X136151904Y-78417009D01*
X136151904Y-78417009D02*
X136247142Y-78464628D01*
X136247142Y-78464628D02*
X136628094Y-78464628D01*
X135723332Y-77940819D02*
X135104285Y-77940819D01*
X135104285Y-77940819D02*
X135437618Y-78321771D01*
X135437618Y-78321771D02*
X135294761Y-78321771D01*
X135294761Y-78321771D02*
X135199523Y-78369390D01*
X135199523Y-78369390D02*
X135151904Y-78417009D01*
X135151904Y-78417009D02*
X135104285Y-78512247D01*
X135104285Y-78512247D02*
X135104285Y-78750342D01*
X135104285Y-78750342D02*
X135151904Y-78845580D01*
X135151904Y-78845580D02*
X135199523Y-78893200D01*
X135199523Y-78893200D02*
X135294761Y-78940819D01*
X135294761Y-78940819D02*
X135580475Y-78940819D01*
X135580475Y-78940819D02*
X135675713Y-78893200D01*
X135675713Y-78893200D02*
X135723332Y-78845580D01*
X141136666Y-71828819D02*
X141469999Y-71352628D01*
X141708094Y-71828819D02*
X141708094Y-70828819D01*
X141708094Y-70828819D02*
X141327142Y-70828819D01*
X141327142Y-70828819D02*
X141231904Y-70876438D01*
X141231904Y-70876438D02*
X141184285Y-70924057D01*
X141184285Y-70924057D02*
X141136666Y-71019295D01*
X141136666Y-71019295D02*
X141136666Y-71162152D01*
X141136666Y-71162152D02*
X141184285Y-71257390D01*
X141184285Y-71257390D02*
X141231904Y-71305009D01*
X141231904Y-71305009D02*
X141327142Y-71352628D01*
X141327142Y-71352628D02*
X141708094Y-71352628D01*
X140755713Y-70924057D02*
X140708094Y-70876438D01*
X140708094Y-70876438D02*
X140612856Y-70828819D01*
X140612856Y-70828819D02*
X140374761Y-70828819D01*
X140374761Y-70828819D02*
X140279523Y-70876438D01*
X140279523Y-70876438D02*
X140231904Y-70924057D01*
X140231904Y-70924057D02*
X140184285Y-71019295D01*
X140184285Y-71019295D02*
X140184285Y-71114533D01*
X140184285Y-71114533D02*
X140231904Y-71257390D01*
X140231904Y-71257390D02*
X140803332Y-71828819D01*
X140803332Y-71828819D02*
X140184285Y-71828819D01*
X141424819Y-97686905D02*
X140424819Y-97686905D01*
X140424819Y-97686905D02*
X140424819Y-97925000D01*
X140424819Y-97925000D02*
X140472438Y-98067857D01*
X140472438Y-98067857D02*
X140567676Y-98163095D01*
X140567676Y-98163095D02*
X140662914Y-98210714D01*
X140662914Y-98210714D02*
X140853390Y-98258333D01*
X140853390Y-98258333D02*
X140996247Y-98258333D01*
X140996247Y-98258333D02*
X141186723Y-98210714D01*
X141186723Y-98210714D02*
X141281961Y-98163095D01*
X141281961Y-98163095D02*
X141377200Y-98067857D01*
X141377200Y-98067857D02*
X141424819Y-97925000D01*
X141424819Y-97925000D02*
X141424819Y-97686905D01*
X140520057Y-98639286D02*
X140472438Y-98686905D01*
X140472438Y-98686905D02*
X140424819Y-98782143D01*
X140424819Y-98782143D02*
X140424819Y-99020238D01*
X140424819Y-99020238D02*
X140472438Y-99115476D01*
X140472438Y-99115476D02*
X140520057Y-99163095D01*
X140520057Y-99163095D02*
X140615295Y-99210714D01*
X140615295Y-99210714D02*
X140710533Y-99210714D01*
X140710533Y-99210714D02*
X140853390Y-99163095D01*
X140853390Y-99163095D02*
X141424819Y-98591667D01*
X141424819Y-98591667D02*
X141424819Y-99210714D01*
X135074819Y-98258333D02*
X134598628Y-97925000D01*
X135074819Y-97686905D02*
X134074819Y-97686905D01*
X134074819Y-97686905D02*
X134074819Y-98067857D01*
X134074819Y-98067857D02*
X134122438Y-98163095D01*
X134122438Y-98163095D02*
X134170057Y-98210714D01*
X134170057Y-98210714D02*
X134265295Y-98258333D01*
X134265295Y-98258333D02*
X134408152Y-98258333D01*
X134408152Y-98258333D02*
X134503390Y-98210714D01*
X134503390Y-98210714D02*
X134551009Y-98163095D01*
X134551009Y-98163095D02*
X134598628Y-98067857D01*
X134598628Y-98067857D02*
X134598628Y-97686905D01*
X135074819Y-99210714D02*
X135074819Y-98639286D01*
X135074819Y-98925000D02*
X134074819Y-98925000D01*
X134074819Y-98925000D02*
X134217676Y-98829762D01*
X134217676Y-98829762D02*
X134312914Y-98734524D01*
X134312914Y-98734524D02*
X134360533Y-98639286D01*
X138249819Y-97686905D02*
X137249819Y-97686905D01*
X137249819Y-97686905D02*
X137249819Y-97925000D01*
X137249819Y-97925000D02*
X137297438Y-98067857D01*
X137297438Y-98067857D02*
X137392676Y-98163095D01*
X137392676Y-98163095D02*
X137487914Y-98210714D01*
X137487914Y-98210714D02*
X137678390Y-98258333D01*
X137678390Y-98258333D02*
X137821247Y-98258333D01*
X137821247Y-98258333D02*
X138011723Y-98210714D01*
X138011723Y-98210714D02*
X138106961Y-98163095D01*
X138106961Y-98163095D02*
X138202200Y-98067857D01*
X138202200Y-98067857D02*
X138249819Y-97925000D01*
X138249819Y-97925000D02*
X138249819Y-97686905D01*
X138249819Y-99210714D02*
X138249819Y-98639286D01*
X138249819Y-98925000D02*
X137249819Y-98925000D01*
X137249819Y-98925000D02*
X137392676Y-98829762D01*
X137392676Y-98829762D02*
X137487914Y-98734524D01*
X137487914Y-98734524D02*
X137535533Y-98639286D01*
D11*
X135160000Y-74830000D02*
X141700000Y-74830000D01*
X135160000Y-75160000D02*
X135160000Y-74830000D01*
X135160000Y-77240000D02*
X135160000Y-77570000D01*
X135160000Y-77570000D02*
X141700000Y-77570000D01*
X141700000Y-74830000D02*
X141700000Y-75160000D01*
X141700000Y-77570000D02*
X141700000Y-77240000D01*
X135160000Y-72290000D02*
X141700000Y-72290000D01*
X135160000Y-72620000D02*
X135160000Y-72290000D01*
X135160000Y-74700000D02*
X135160000Y-75030000D01*
X135160000Y-75030000D02*
X141700000Y-75030000D01*
X141700000Y-72290000D02*
X141700000Y-72620000D01*
X141700000Y-75030000D02*
X141700000Y-74700000D01*
X140970000Y-89940000D02*
X140970000Y-90590000D01*
X142090000Y-90590000D02*
X142090000Y-94830000D01*
X139850000Y-90590000D02*
X142090000Y-90590000D01*
X139850000Y-91190000D02*
X142090000Y-91190000D01*
X139850000Y-91310000D02*
X142090000Y-91310000D01*
X139850000Y-91430000D02*
X142090000Y-91430000D01*
X142090000Y-94830000D02*
X139850000Y-94830000D01*
X139850000Y-94830000D02*
X139850000Y-90590000D01*
X140970000Y-95480000D02*
X140970000Y-94830000D01*
X135990000Y-89440000D02*
X135990000Y-95980000D01*
X135660000Y-89440000D02*
X135990000Y-89440000D01*
X133580000Y-89440000D02*
X133250000Y-89440000D01*
X133250000Y-89440000D02*
X133250000Y-95980000D01*
X135990000Y-95980000D02*
X135660000Y-95980000D01*
X133250000Y-95980000D02*
X133580000Y-95980000D01*
X137795000Y-89940000D02*
X137795000Y-90590000D01*
X138915000Y-90590000D02*
X138915000Y-94830000D01*
X136675000Y-90590000D02*
X138915000Y-90590000D01*
X136675000Y-91190000D02*
X138915000Y-91190000D01*
X136675000Y-91310000D02*
X138915000Y-91310000D01*
X136675000Y-91430000D02*
X138915000Y-91430000D01*
X138915000Y-94830000D02*
X136675000Y-94830000D01*
X136675000Y-94830000D02*
X136675000Y-90590000D01*
X137795000Y-95480000D02*
X137795000Y-94830000D01*
%LPC*%
D12*
X132080000Y-68580000D03*
X132080000Y-71120000D03*
X132080000Y-73660000D03*
X132080000Y-76200000D03*
X132080000Y-78740000D03*
X132080000Y-81280000D03*
X132080000Y-83820000D03*
X132080000Y-86360000D03*
X132080000Y-88900000D03*
X132080000Y-91440000D03*
X132080000Y-93980000D03*
X132080000Y-96520000D03*
X132080000Y-99060000D03*
D13*
X132080000Y-101600000D03*
D14*
X153670000Y-81280000D03*
D15*
X151130000Y-81280000D03*
X151130000Y-88900000D03*
X153670000Y-88900000D03*
D12*
X147320000Y-101600000D03*
X147320000Y-99060000D03*
X147320000Y-96520000D03*
X147320000Y-93980000D03*
X147320000Y-91440000D03*
X147320000Y-88900000D03*
X147320000Y-86360000D03*
X147320000Y-83820000D03*
X147320000Y-81280000D03*
X147320000Y-78740000D03*
X147320000Y-76200000D03*
X147320000Y-73660000D03*
X147320000Y-71120000D03*
X147320000Y-68580000D03*
D16*
X129540000Y-68580000D03*
D15*
X129540000Y-71120000D03*
X129540000Y-73660000D03*
X129540000Y-76200000D03*
X129540000Y-78740000D03*
X129540000Y-81280000D03*
X129540000Y-83820000D03*
X129540000Y-86360000D03*
X129540000Y-88900000D03*
X129540000Y-91440000D03*
X129540000Y-93980000D03*
X129540000Y-96520000D03*
X129540000Y-99060000D03*
D14*
X129540000Y-101600000D03*
D15*
X144780000Y-101600000D03*
X144780000Y-99060000D03*
X144780000Y-96520000D03*
X144780000Y-93980000D03*
X144780000Y-91440000D03*
X144780000Y-88900000D03*
X144780000Y-86360000D03*
X144780000Y-83820000D03*
X144780000Y-81280000D03*
X144780000Y-78740000D03*
X144780000Y-76200000D03*
X144780000Y-73660000D03*
X144780000Y-71120000D03*
X144780000Y-68580000D03*
D16*
X134620000Y-76200000D03*
D15*
X142240000Y-76200000D03*
D16*
X134620000Y-73660000D03*
D15*
X142240000Y-73660000D03*
D14*
X140970000Y-88900000D03*
D15*
X140970000Y-96520000D03*
D16*
X134620000Y-88900000D03*
D15*
X134620000Y-96520000D03*
D14*
X137795000Y-88900000D03*
D15*
X137795000Y-96520000D03*
%LPD*%
M02*
