G04 #@! TF.GenerationSoftware,KiCad,Pcbnew,7.0.5*
G04 #@! TF.CreationDate,2023-10-08T13:51:06+02:00*
G04 #@! TF.ProjectId,ZXROM-4in1,5a58524f-4d2d-4346-996e-312e6b696361,1.1*
G04 #@! TF.SameCoordinates,Original*
G04 #@! TF.FileFunction,Soldermask,Bot*
G04 #@! TF.FilePolarity,Negative*
%FSLAX46Y46*%
G04 Gerber Fmt 4.6, Leading zero omitted, Abs format (unit mm)*
G04 Created by KiCad (PCBNEW 7.0.5) date 2023-10-08 13:51:06*
%MOMM*%
%LPD*%
G01*
G04 APERTURE LIST*
%ADD10C,2.100000*%
%ADD11R,2.100000X2.100000*%
%ADD12R,1.600000X1.600000*%
%ADD13O,1.600000X1.600000*%
%ADD14C,1.600000*%
G04 APERTURE END LIST*
D10*
X132080000Y-68580000D03*
X132080000Y-71120000D03*
X132080000Y-73660000D03*
X132080000Y-76200000D03*
X132080000Y-78740000D03*
X132080000Y-81280000D03*
X132080000Y-83820000D03*
X132080000Y-86360000D03*
X132080000Y-88900000D03*
X132080000Y-91440000D03*
X132080000Y-93980000D03*
X132080000Y-96520000D03*
X132080000Y-99060000D03*
D11*
X132080000Y-101600000D03*
D12*
X153670000Y-81280000D03*
D13*
X151130000Y-81280000D03*
X151130000Y-88900000D03*
X153670000Y-88900000D03*
D10*
X147320000Y-101600000D03*
X147320000Y-99060000D03*
X147320000Y-96520000D03*
X147320000Y-93980000D03*
X147320000Y-91440000D03*
X147320000Y-88900000D03*
X147320000Y-86360000D03*
X147320000Y-83820000D03*
X147320000Y-81280000D03*
X147320000Y-78740000D03*
X147320000Y-76200000D03*
X147320000Y-73660000D03*
X147320000Y-71120000D03*
X147320000Y-68580000D03*
D14*
X129540000Y-68580000D03*
D13*
X129540000Y-71120000D03*
X129540000Y-73660000D03*
X129540000Y-76200000D03*
X129540000Y-78740000D03*
X129540000Y-81280000D03*
X129540000Y-83820000D03*
X129540000Y-86360000D03*
X129540000Y-88900000D03*
X129540000Y-91440000D03*
X129540000Y-93980000D03*
X129540000Y-96520000D03*
X129540000Y-99060000D03*
D12*
X129540000Y-101600000D03*
D13*
X144780000Y-101600000D03*
X144780000Y-99060000D03*
X144780000Y-96520000D03*
X144780000Y-93980000D03*
X144780000Y-91440000D03*
X144780000Y-88900000D03*
X144780000Y-86360000D03*
X144780000Y-83820000D03*
X144780000Y-81280000D03*
X144780000Y-78740000D03*
X144780000Y-76200000D03*
X144780000Y-73660000D03*
X144780000Y-71120000D03*
X144780000Y-68580000D03*
D14*
X134620000Y-76200000D03*
D13*
X142240000Y-76200000D03*
D14*
X134620000Y-73660000D03*
D13*
X142240000Y-73660000D03*
D12*
X140970000Y-88900000D03*
D13*
X140970000Y-96520000D03*
D14*
X134620000Y-88900000D03*
D13*
X134620000Y-96520000D03*
D12*
X137795000Y-88900000D03*
D13*
X137795000Y-96520000D03*
M02*
