G04 #@! TF.GenerationSoftware,KiCad,Pcbnew,7.0.5*
G04 #@! TF.CreationDate,2023-10-08T13:51:06+02:00*
G04 #@! TF.ProjectId,ZXROM-4in1,5a58524f-4d2d-4346-996e-312e6b696361,1.1*
G04 #@! TF.SameCoordinates,Original*
G04 #@! TF.FileFunction,Copper,L2,Bot*
G04 #@! TF.FilePolarity,Positive*
%FSLAX46Y46*%
G04 Gerber Fmt 4.6, Leading zero omitted, Abs format (unit mm)*
G04 Created by KiCad (PCBNEW 7.0.5) date 2023-10-08 13:51:06*
%MOMM*%
%LPD*%
G01*
G04 APERTURE LIST*
G04 #@! TA.AperFunction,ComponentPad*
%ADD10C,2.100000*%
G04 #@! TD*
G04 #@! TA.AperFunction,ComponentPad*
%ADD11R,2.100000X2.100000*%
G04 #@! TD*
G04 #@! TA.AperFunction,ComponentPad*
%ADD12R,1.600000X1.600000*%
G04 #@! TD*
G04 #@! TA.AperFunction,ComponentPad*
%ADD13O,1.600000X1.600000*%
G04 #@! TD*
G04 #@! TA.AperFunction,ComponentPad*
%ADD14C,1.600000*%
G04 #@! TD*
G04 #@! TA.AperFunction,ViaPad*
%ADD15C,0.800000*%
G04 #@! TD*
G04 #@! TA.AperFunction,Conductor*
%ADD16C,0.250000*%
G04 #@! TD*
G04 #@! TA.AperFunction,Conductor*
%ADD17C,0.400000*%
G04 #@! TD*
G04 #@! TA.AperFunction,Conductor*
%ADD18C,0.500000*%
G04 #@! TD*
G04 APERTURE END LIST*
D10*
X132080000Y-68580000D03*
X132080000Y-71120000D03*
X132080000Y-73660000D03*
X132080000Y-76200000D03*
X132080000Y-78740000D03*
X132080000Y-81280000D03*
X132080000Y-83820000D03*
X132080000Y-86360000D03*
X132080000Y-88900000D03*
X132080000Y-91440000D03*
X132080000Y-93980000D03*
X132080000Y-96520000D03*
X132080000Y-99060000D03*
D11*
X132080000Y-101600000D03*
D12*
X153670000Y-81280000D03*
D13*
X151130000Y-81280000D03*
X151130000Y-88900000D03*
X153670000Y-88900000D03*
D10*
X147320000Y-101600000D03*
X147320000Y-99060000D03*
X147320000Y-96520000D03*
X147320000Y-93980000D03*
X147320000Y-91440000D03*
X147320000Y-88900000D03*
X147320000Y-86360000D03*
X147320000Y-83820000D03*
X147320000Y-81280000D03*
X147320000Y-78740000D03*
X147320000Y-76200000D03*
X147320000Y-73660000D03*
X147320000Y-71120000D03*
X147320000Y-68580000D03*
D14*
X129540000Y-68580000D03*
D13*
X129540000Y-71120000D03*
X129540000Y-73660000D03*
X129540000Y-76200000D03*
X129540000Y-78740000D03*
X129540000Y-81280000D03*
X129540000Y-83820000D03*
X129540000Y-86360000D03*
X129540000Y-88900000D03*
X129540000Y-91440000D03*
X129540000Y-93980000D03*
X129540000Y-96520000D03*
X129540000Y-99060000D03*
D12*
X129540000Y-101600000D03*
D13*
X144780000Y-101600000D03*
X144780000Y-99060000D03*
X144780000Y-96520000D03*
X144780000Y-93980000D03*
X144780000Y-91440000D03*
X144780000Y-88900000D03*
X144780000Y-86360000D03*
X144780000Y-83820000D03*
X144780000Y-81280000D03*
X144780000Y-78740000D03*
X144780000Y-76200000D03*
X144780000Y-73660000D03*
X144780000Y-71120000D03*
X144780000Y-68580000D03*
D14*
X134620000Y-76200000D03*
D13*
X142240000Y-76200000D03*
D14*
X134620000Y-73660000D03*
D13*
X142240000Y-73660000D03*
D12*
X140970000Y-88900000D03*
D13*
X140970000Y-96520000D03*
D14*
X134620000Y-88900000D03*
D13*
X134620000Y-96520000D03*
D12*
X137795000Y-88900000D03*
D13*
X137795000Y-96520000D03*
D15*
X134620000Y-85090000D03*
X137795000Y-71120000D03*
X137795000Y-85080000D03*
X137795000Y-101600000D03*
X152400000Y-85090000D03*
X140970000Y-85090000D03*
D16*
X132715000Y-68580000D02*
X133350000Y-69215000D01*
X133350000Y-69215000D02*
X133350000Y-77470000D01*
X140970000Y-81915000D02*
X140970000Y-78105000D01*
X140970000Y-74930000D02*
X142240000Y-73660000D01*
X133985000Y-78105000D02*
X140970000Y-78105000D01*
X133350000Y-77470000D02*
X133985000Y-78105000D01*
X153670000Y-81280000D02*
X152400000Y-82550000D01*
X132080000Y-68580000D02*
X132715000Y-68580000D01*
X132080000Y-68580000D02*
X129540000Y-68580000D01*
X140970000Y-78105000D02*
X140970000Y-74930000D01*
X141605000Y-82550000D02*
X140970000Y-81915000D01*
X152400000Y-82550000D02*
X141605000Y-82550000D01*
X147320000Y-101600000D02*
X144780000Y-101600000D01*
X132080000Y-71120000D02*
X129540000Y-71120000D01*
X147320000Y-99060000D02*
X144780000Y-99060000D01*
X132080000Y-73660000D02*
X129540000Y-73660000D01*
X147320000Y-96520000D02*
X144780000Y-96520000D01*
X132080000Y-76200000D02*
X129540000Y-76200000D01*
X147320000Y-93980000D02*
X144780000Y-93980000D01*
X132080000Y-78740000D02*
X129540000Y-78740000D01*
X147320000Y-91440000D02*
X144780000Y-91440000D01*
X132080000Y-81280000D02*
X129540000Y-81280000D01*
X137795000Y-88900000D02*
X134620000Y-88900000D01*
X140970000Y-88900000D02*
X137795000Y-88900000D01*
X144780000Y-88900000D02*
X140970000Y-88900000D01*
X129540000Y-83820000D02*
X132080000Y-83820000D01*
X147320000Y-86360000D02*
X144780000Y-86360000D01*
X132080000Y-86360000D02*
X129540000Y-86360000D01*
X147320000Y-83820000D02*
X144780000Y-83820000D01*
X129540000Y-88900000D02*
X132080000Y-88900000D01*
X147320000Y-81280000D02*
X144780000Y-81280000D01*
X132080000Y-91440000D02*
X129540000Y-91440000D01*
X147320000Y-78740000D02*
X144780000Y-78740000D01*
X132080000Y-93980000D02*
X129540000Y-93980000D01*
X147320000Y-76200000D02*
X144780000Y-76200000D01*
X132080000Y-96520000D02*
X129540000Y-96520000D01*
X147320000Y-73660000D02*
X144780000Y-73660000D01*
X132080000Y-99060000D02*
X129540000Y-99060000D01*
X151130000Y-81280000D02*
X149860000Y-80010000D01*
X143510000Y-75565000D02*
X143510000Y-71755000D01*
X142875000Y-76200000D02*
X143510000Y-75565000D01*
X142875000Y-80010000D02*
X142240000Y-79375000D01*
X143510000Y-71755000D02*
X144145000Y-71120000D01*
X144145000Y-71120000D02*
X144780000Y-71120000D01*
X142240000Y-79375000D02*
X142240000Y-76200000D01*
X149860000Y-80010000D02*
X142875000Y-80010000D01*
X142240000Y-76200000D02*
X142875000Y-76200000D01*
D17*
X137795000Y-85080000D02*
X134630000Y-85080000D01*
D18*
X129540000Y-101600000D02*
X132080000Y-101600000D01*
D16*
X137795000Y-85080000D02*
X152390000Y-85080000D01*
D17*
X134630000Y-85080000D02*
X134620000Y-85090000D01*
D18*
X151130000Y-88900000D02*
X153670000Y-88900000D01*
D17*
X152390000Y-85080000D02*
X152400000Y-85090000D01*
D18*
X134620000Y-73660000D02*
X134620000Y-69850000D01*
X147320000Y-68580000D02*
X144780000Y-68580000D01*
X135890000Y-68580000D02*
X134620000Y-69850000D01*
X144780000Y-68580000D02*
X135890000Y-68580000D01*
X134620000Y-76200000D02*
X134620000Y-73660000D01*
D16*
X146050000Y-90170000D02*
X147320000Y-88900000D01*
X142875000Y-95885000D02*
X142875000Y-90805000D01*
X140970000Y-96520000D02*
X142240000Y-96520000D01*
X142240000Y-96520000D02*
X142875000Y-95885000D01*
X142875000Y-90805000D02*
X143510000Y-90170000D01*
X143510000Y-90170000D02*
X146050000Y-90170000D01*
G04 #@! TA.AperFunction,Conductor*
G36*
X153342359Y-88661955D02*
G01*
X153284835Y-88774852D01*
X153265014Y-88900000D01*
X153284835Y-89025148D01*
X153342359Y-89138045D01*
X153358314Y-89154000D01*
X151441686Y-89154000D01*
X151457641Y-89138045D01*
X151515165Y-89025148D01*
X151534986Y-88900000D01*
X151515165Y-88774852D01*
X151457641Y-88661955D01*
X151441686Y-88646000D01*
X153358314Y-88646000D01*
X153342359Y-88661955D01*
G37*
G04 #@! TD.AperFunction*
G04 #@! TA.AperFunction,Conductor*
G36*
X156786621Y-80030002D02*
G01*
X156833114Y-80083658D01*
X156844500Y-80136000D01*
X156844500Y-90678500D01*
X156824498Y-90746621D01*
X156770842Y-90793114D01*
X156718500Y-90804500D01*
X149250158Y-90804500D01*
X149249952Y-90804459D01*
X149224996Y-90804459D01*
X149224798Y-90804541D01*
X149224620Y-90804614D01*
X149224617Y-90804617D01*
X149224459Y-90805000D01*
X149224476Y-90830014D01*
X149224471Y-90830014D01*
X149224500Y-90830157D01*
X149224500Y-103378500D01*
X149204498Y-103446621D01*
X149150842Y-103493114D01*
X149098500Y-103504500D01*
X128396500Y-103504500D01*
X128328379Y-103484498D01*
X128281886Y-103430842D01*
X128270500Y-103378500D01*
X128270500Y-103157999D01*
X128270500Y-102934819D01*
X128290501Y-102866702D01*
X128344156Y-102820209D01*
X128414430Y-102810105D01*
X128472008Y-102833955D01*
X128494034Y-102850444D01*
X128630906Y-102901494D01*
X128691402Y-102907999D01*
X128691415Y-102908000D01*
X129286000Y-102908000D01*
X129286000Y-102225583D01*
X129377275Y-102260200D01*
X129499166Y-102275000D01*
X129580834Y-102275000D01*
X129702725Y-102260200D01*
X129793999Y-102225583D01*
X129794000Y-102908000D01*
X130388585Y-102908000D01*
X130388597Y-102907999D01*
X130449092Y-102901494D01*
X130465935Y-102895212D01*
X130536750Y-102890144D01*
X130599064Y-102924166D01*
X130610841Y-102937757D01*
X130667095Y-103012904D01*
X130784034Y-103100444D01*
X130920906Y-103151494D01*
X130981402Y-103157999D01*
X130981415Y-103158000D01*
X131826000Y-103158000D01*
X131826000Y-102463786D01*
X131891849Y-102485182D01*
X132032836Y-102500000D01*
X132127164Y-102500000D01*
X132268151Y-102485182D01*
X132334000Y-102463786D01*
X132334000Y-103158000D01*
X133178585Y-103158000D01*
X133178597Y-103157999D01*
X133239093Y-103151494D01*
X133375964Y-103100444D01*
X133375965Y-103100444D01*
X133492904Y-103012904D01*
X133580444Y-102895965D01*
X133580444Y-102895964D01*
X133631494Y-102759093D01*
X133637999Y-102698597D01*
X133638000Y-102698585D01*
X133638000Y-101854000D01*
X132946117Y-101854000D01*
X132980000Y-101694594D01*
X132980000Y-101505406D01*
X132946117Y-101346000D01*
X133638000Y-101346000D01*
X133638000Y-100501414D01*
X133637999Y-100501402D01*
X133631494Y-100440906D01*
X133580444Y-100304035D01*
X133580444Y-100304034D01*
X133492905Y-100187097D01*
X133395793Y-100114399D01*
X133353247Y-100057563D01*
X133348183Y-99986747D01*
X133363867Y-99947701D01*
X133472927Y-99769732D01*
X133566805Y-99543092D01*
X133624072Y-99304557D01*
X133643319Y-99060000D01*
X133624072Y-98815443D01*
X133566805Y-98576908D01*
X133472927Y-98350268D01*
X133344752Y-98141104D01*
X133185433Y-97954567D01*
X133104929Y-97885809D01*
X133066121Y-97826360D01*
X133065615Y-97755366D01*
X133103571Y-97695367D01*
X133104879Y-97694232D01*
X133185433Y-97625433D01*
X133344752Y-97438896D01*
X133394569Y-97357600D01*
X133447216Y-97309969D01*
X133517257Y-97298362D01*
X133582455Y-97326465D01*
X133605217Y-97351167D01*
X133614186Y-97363977D01*
X133776025Y-97525815D01*
X133963501Y-97657087D01*
X134170926Y-97753811D01*
X134170931Y-97753813D01*
X134366000Y-97806081D01*
X134366000Y-96831686D01*
X134381955Y-96847641D01*
X134494852Y-96905165D01*
X134588519Y-96920000D01*
X134651481Y-96920000D01*
X134745148Y-96905165D01*
X134858045Y-96847641D01*
X134874000Y-96831686D01*
X134874000Y-97806081D01*
X135069068Y-97753813D01*
X135069073Y-97753811D01*
X135276498Y-97657087D01*
X135463974Y-97525815D01*
X135463980Y-97525810D01*
X135625810Y-97363980D01*
X135625815Y-97363974D01*
X135757087Y-97176498D01*
X135853811Y-96969073D01*
X135853813Y-96969068D01*
X135906082Y-96774000D01*
X134931686Y-96774000D01*
X134947641Y-96758045D01*
X135005165Y-96645148D01*
X135024986Y-96520000D01*
X136481502Y-96520000D01*
X136501457Y-96748087D01*
X136524500Y-96834084D01*
X136560715Y-96969240D01*
X136560717Y-96969246D01*
X136657477Y-97176749D01*
X136762309Y-97326465D01*
X136788802Y-97364300D01*
X136950700Y-97526198D01*
X137138251Y-97657523D01*
X137345757Y-97754284D01*
X137566913Y-97813543D01*
X137795000Y-97833498D01*
X138023087Y-97813543D01*
X138244243Y-97754284D01*
X138451749Y-97657523D01*
X138639300Y-97526198D01*
X138801198Y-97364300D01*
X138932523Y-97176749D01*
X139029284Y-96969243D01*
X139088543Y-96748087D01*
X139108498Y-96520000D01*
X139088543Y-96291913D01*
X139029284Y-96070757D01*
X138932523Y-95863251D01*
X138801198Y-95675700D01*
X138639300Y-95513802D01*
X138451749Y-95382477D01*
X138370592Y-95344633D01*
X138244246Y-95285717D01*
X138244240Y-95285715D01*
X138091364Y-95244752D01*
X138023087Y-95226457D01*
X137795000Y-95206502D01*
X137566913Y-95226457D01*
X137345759Y-95285715D01*
X137345753Y-95285717D01*
X137138250Y-95382477D01*
X136950703Y-95513799D01*
X136950697Y-95513804D01*
X136788804Y-95675697D01*
X136788799Y-95675703D01*
X136657477Y-95863250D01*
X136560717Y-96070753D01*
X136560715Y-96070759D01*
X136525500Y-96202183D01*
X136501457Y-96291913D01*
X136481502Y-96520000D01*
X135024986Y-96520000D01*
X135005165Y-96394852D01*
X134947641Y-96281955D01*
X134931686Y-96266000D01*
X135906082Y-96266000D01*
X135853813Y-96070931D01*
X135853811Y-96070926D01*
X135757087Y-95863501D01*
X135625815Y-95676025D01*
X135625810Y-95676019D01*
X135463980Y-95514189D01*
X135463974Y-95514184D01*
X135276498Y-95382912D01*
X135069073Y-95286188D01*
X135069071Y-95286187D01*
X134874000Y-95233917D01*
X134874000Y-96208314D01*
X134858045Y-96192359D01*
X134745148Y-96134835D01*
X134651481Y-96120000D01*
X134588519Y-96120000D01*
X134494852Y-96134835D01*
X134381955Y-96192359D01*
X134366000Y-96208314D01*
X134366000Y-95233917D01*
X134365999Y-95233917D01*
X134170928Y-95286187D01*
X134170926Y-95286188D01*
X133963501Y-95382912D01*
X133776025Y-95514184D01*
X133614189Y-95676019D01*
X133614187Y-95676022D01*
X133605212Y-95688839D01*
X133549753Y-95733165D01*
X133479133Y-95740471D01*
X133415774Y-95708438D01*
X133394569Y-95682399D01*
X133390661Y-95676022D01*
X133344752Y-95601104D01*
X133185433Y-95414567D01*
X133104929Y-95345809D01*
X133066121Y-95286360D01*
X133065615Y-95215366D01*
X133103571Y-95155367D01*
X133104879Y-95154232D01*
X133185433Y-95085433D01*
X133344752Y-94898896D01*
X133472927Y-94689732D01*
X133566805Y-94463092D01*
X133624072Y-94224557D01*
X133643319Y-93980000D01*
X133624072Y-93735443D01*
X133566805Y-93496908D01*
X133472927Y-93270268D01*
X133344752Y-93061104D01*
X133185433Y-92874567D01*
X133104929Y-92805809D01*
X133066121Y-92746360D01*
X133065615Y-92675366D01*
X133103571Y-92615367D01*
X133104879Y-92614232D01*
X133185433Y-92545433D01*
X133344752Y-92358896D01*
X133472927Y-92149732D01*
X133566805Y-91923092D01*
X133624072Y-91684557D01*
X133643319Y-91440000D01*
X133624072Y-91195443D01*
X133566805Y-90956908D01*
X133472927Y-90730268D01*
X133344752Y-90521104D01*
X133185433Y-90334567D01*
X133185430Y-90334565D01*
X133185429Y-90334563D01*
X133104930Y-90265809D01*
X133066121Y-90206359D01*
X133065615Y-90135364D01*
X133103572Y-90075365D01*
X133104790Y-90074308D01*
X133185433Y-90005433D01*
X133344752Y-89818896D01*
X133394284Y-89738065D01*
X133446931Y-89690434D01*
X133516972Y-89678827D01*
X133582170Y-89706929D01*
X133604931Y-89731631D01*
X133613800Y-89744298D01*
X133613801Y-89744299D01*
X133613802Y-89744300D01*
X133775700Y-89906198D01*
X133963251Y-90037523D01*
X134170757Y-90134284D01*
X134391913Y-90193543D01*
X134620000Y-90213498D01*
X134848087Y-90193543D01*
X135069243Y-90134284D01*
X135276749Y-90037523D01*
X135464300Y-89906198D01*
X135626198Y-89744300D01*
X135700357Y-89638390D01*
X135736181Y-89587229D01*
X135791638Y-89542901D01*
X135839394Y-89533500D01*
X136360500Y-89533500D01*
X136428621Y-89553502D01*
X136475114Y-89607158D01*
X136486500Y-89659500D01*
X136486500Y-89748649D01*
X136493009Y-89809196D01*
X136493011Y-89809204D01*
X136544110Y-89946202D01*
X136544112Y-89946207D01*
X136631738Y-90063261D01*
X136748792Y-90150887D01*
X136748794Y-90150888D01*
X136748796Y-90150889D01*
X136807875Y-90172924D01*
X136885795Y-90201988D01*
X136885803Y-90201990D01*
X136946350Y-90208499D01*
X136946355Y-90208499D01*
X136946362Y-90208500D01*
X136946368Y-90208500D01*
X138643632Y-90208500D01*
X138643638Y-90208500D01*
X138643645Y-90208499D01*
X138643649Y-90208499D01*
X138704196Y-90201990D01*
X138704199Y-90201989D01*
X138704201Y-90201989D01*
X138841204Y-90150889D01*
X138863389Y-90134282D01*
X138958261Y-90063261D01*
X139045887Y-89946207D01*
X139045887Y-89946206D01*
X139045889Y-89946204D01*
X139096989Y-89809201D01*
X139103500Y-89748638D01*
X139103500Y-89659499D01*
X139123502Y-89591379D01*
X139177158Y-89544886D01*
X139229500Y-89533500D01*
X139535500Y-89533500D01*
X139603621Y-89553502D01*
X139650114Y-89607158D01*
X139661500Y-89659500D01*
X139661500Y-89748649D01*
X139668009Y-89809196D01*
X139668011Y-89809204D01*
X139719110Y-89946202D01*
X139719112Y-89946207D01*
X139806738Y-90063261D01*
X139923792Y-90150887D01*
X139923794Y-90150888D01*
X139923796Y-90150889D01*
X139982875Y-90172924D01*
X140060795Y-90201988D01*
X140060803Y-90201990D01*
X140121350Y-90208499D01*
X140121355Y-90208499D01*
X140121362Y-90208500D01*
X140121368Y-90208500D01*
X141818632Y-90208500D01*
X141818638Y-90208500D01*
X141818645Y-90208499D01*
X141818649Y-90208499D01*
X141879196Y-90201990D01*
X141879199Y-90201989D01*
X141879201Y-90201989D01*
X142016204Y-90150889D01*
X142038389Y-90134282D01*
X142133261Y-90063261D01*
X142220887Y-89946207D01*
X142220887Y-89946206D01*
X142220889Y-89946204D01*
X142271989Y-89809201D01*
X142278500Y-89748638D01*
X142278500Y-89659499D01*
X142298502Y-89591379D01*
X142352158Y-89544886D01*
X142404500Y-89533500D01*
X142946404Y-89533500D01*
X143014525Y-89553502D01*
X143061018Y-89607158D01*
X143071122Y-89677432D01*
X143041628Y-89742012D01*
X143035499Y-89748596D01*
X142486333Y-90297760D01*
X142473901Y-90307720D01*
X142474089Y-90307947D01*
X142467982Y-90312999D01*
X142420694Y-90363355D01*
X142419319Y-90364774D01*
X142398863Y-90385231D01*
X142394560Y-90390777D01*
X142390714Y-90395279D01*
X142358417Y-90429674D01*
X142358411Y-90429683D01*
X142348651Y-90447435D01*
X142337803Y-90463950D01*
X142325386Y-90479958D01*
X142306645Y-90523264D01*
X142304034Y-90528594D01*
X142281305Y-90569939D01*
X142281303Y-90569944D01*
X142276267Y-90589559D01*
X142269864Y-90608262D01*
X142261819Y-90626852D01*
X142254437Y-90673456D01*
X142253233Y-90679268D01*
X142241500Y-90724968D01*
X142241500Y-90745223D01*
X142239949Y-90764933D01*
X142236780Y-90784942D01*
X142236780Y-90784943D01*
X142241220Y-90831917D01*
X142241500Y-90837850D01*
X142241500Y-95570403D01*
X142221498Y-95638524D01*
X142204594Y-95659500D01*
X142169766Y-95694327D01*
X142107453Y-95728351D01*
X142036638Y-95723285D01*
X141979803Y-95680738D01*
X141977457Y-95677498D01*
X141977180Y-95677103D01*
X141976198Y-95675700D01*
X141814300Y-95513802D01*
X141626749Y-95382477D01*
X141545592Y-95344633D01*
X141419246Y-95285717D01*
X141419240Y-95285715D01*
X141266364Y-95244752D01*
X141198087Y-95226457D01*
X140970000Y-95206502D01*
X140741913Y-95226457D01*
X140520759Y-95285715D01*
X140520753Y-95285717D01*
X140313250Y-95382477D01*
X140125703Y-95513799D01*
X140125697Y-95513804D01*
X139963804Y-95675697D01*
X139963799Y-95675703D01*
X139832477Y-95863250D01*
X139735717Y-96070753D01*
X139735715Y-96070759D01*
X139700500Y-96202183D01*
X139676457Y-96291913D01*
X139656502Y-96520000D01*
X139676457Y-96748087D01*
X139699500Y-96834084D01*
X139735715Y-96969240D01*
X139735717Y-96969246D01*
X139832477Y-97176749D01*
X139937309Y-97326465D01*
X139963802Y-97364300D01*
X140125700Y-97526198D01*
X140313251Y-97657523D01*
X140520757Y-97754284D01*
X140741913Y-97813543D01*
X140970000Y-97833498D01*
X141198087Y-97813543D01*
X141419243Y-97754284D01*
X141626749Y-97657523D01*
X141814300Y-97526198D01*
X141976198Y-97364300D01*
X142084773Y-97209238D01*
X142140230Y-97164911D01*
X142184025Y-97155572D01*
X142235904Y-97153941D01*
X142248976Y-97153531D01*
X142250955Y-97153500D01*
X142279851Y-97153500D01*
X142279856Y-97153500D01*
X142286818Y-97152619D01*
X142292719Y-97152154D01*
X142339889Y-97150673D01*
X142359347Y-97145019D01*
X142378694Y-97141013D01*
X142398797Y-97138474D01*
X142442679Y-97121099D01*
X142448274Y-97119183D01*
X142476816Y-97110891D01*
X142493591Y-97106019D01*
X142493595Y-97106017D01*
X142511026Y-97095708D01*
X142528780Y-97087009D01*
X142547617Y-97079552D01*
X142585786Y-97051818D01*
X142590744Y-97048562D01*
X142631362Y-97024542D01*
X142645685Y-97010218D01*
X142660724Y-96997374D01*
X142677107Y-96985472D01*
X142707193Y-96949103D01*
X142711161Y-96944741D01*
X143253413Y-96402489D01*
X143315723Y-96368465D01*
X143386538Y-96373530D01*
X143443374Y-96416077D01*
X143468185Y-96482597D01*
X143468027Y-96502564D01*
X143466502Y-96520000D01*
X143486457Y-96748087D01*
X143509500Y-96834084D01*
X143545715Y-96969240D01*
X143545717Y-96969246D01*
X143642477Y-97176749D01*
X143747309Y-97326465D01*
X143773802Y-97364300D01*
X143935700Y-97526198D01*
X144123251Y-97657523D01*
X144158359Y-97673894D01*
X144162457Y-97675805D01*
X144215742Y-97722722D01*
X144235203Y-97790999D01*
X144214661Y-97858959D01*
X144162457Y-97904195D01*
X144123250Y-97922477D01*
X143935703Y-98053799D01*
X143935697Y-98053804D01*
X143773804Y-98215697D01*
X143773799Y-98215703D01*
X143642477Y-98403250D01*
X143545717Y-98610753D01*
X143545715Y-98610759D01*
X143486457Y-98831913D01*
X143466502Y-99060000D01*
X143486457Y-99288086D01*
X143545715Y-99509240D01*
X143545717Y-99509246D01*
X143642477Y-99716749D01*
X143728771Y-99839990D01*
X143773802Y-99904300D01*
X143935700Y-100066198D01*
X144123251Y-100197523D01*
X144154177Y-100211944D01*
X144162457Y-100215805D01*
X144215742Y-100262722D01*
X144235203Y-100330999D01*
X144214661Y-100398959D01*
X144162457Y-100444195D01*
X144123250Y-100462477D01*
X143935703Y-100593799D01*
X143935697Y-100593804D01*
X143773804Y-100755697D01*
X143773799Y-100755703D01*
X143642477Y-100943250D01*
X143545717Y-101150753D01*
X143545715Y-101150759D01*
X143489948Y-101358884D01*
X143486457Y-101371913D01*
X143466502Y-101600000D01*
X143486457Y-101828087D01*
X143500273Y-101879647D01*
X143545715Y-102049240D01*
X143545717Y-102049246D01*
X143642477Y-102256749D01*
X143761491Y-102426719D01*
X143773802Y-102444300D01*
X143935700Y-102606198D01*
X144123251Y-102737523D01*
X144330757Y-102834284D01*
X144551913Y-102893543D01*
X144780000Y-102913498D01*
X145008087Y-102893543D01*
X145229243Y-102834284D01*
X145436749Y-102737523D01*
X145624300Y-102606198D01*
X145786198Y-102444300D01*
X145795067Y-102431632D01*
X145850519Y-102387304D01*
X145921138Y-102379990D01*
X145984501Y-102412018D01*
X146005715Y-102438065D01*
X146055248Y-102518896D01*
X146214567Y-102705433D01*
X146401104Y-102864752D01*
X146610268Y-102992927D01*
X146836908Y-103086805D01*
X147075443Y-103144072D01*
X147320000Y-103163319D01*
X147564557Y-103144072D01*
X147803092Y-103086805D01*
X148029732Y-102992927D01*
X148238896Y-102864752D01*
X148425433Y-102705433D01*
X148584752Y-102518896D01*
X148712927Y-102309732D01*
X148806805Y-102083092D01*
X148864072Y-101844557D01*
X148883319Y-101600000D01*
X148864072Y-101355443D01*
X148806805Y-101116908D01*
X148712927Y-100890268D01*
X148584752Y-100681104D01*
X148425433Y-100494567D01*
X148344929Y-100425809D01*
X148306121Y-100366360D01*
X148305615Y-100295366D01*
X148343571Y-100235367D01*
X148344879Y-100234232D01*
X148425433Y-100165433D01*
X148584752Y-99978896D01*
X148712927Y-99769732D01*
X148806805Y-99543092D01*
X148864072Y-99304557D01*
X148883319Y-99060000D01*
X148864072Y-98815443D01*
X148806805Y-98576908D01*
X148712927Y-98350268D01*
X148584752Y-98141104D01*
X148425433Y-97954567D01*
X148344929Y-97885809D01*
X148306121Y-97826360D01*
X148305615Y-97755366D01*
X148343571Y-97695367D01*
X148344879Y-97694232D01*
X148425433Y-97625433D01*
X148584752Y-97438896D01*
X148712927Y-97229732D01*
X148806805Y-97003092D01*
X148864072Y-96764557D01*
X148883319Y-96520000D01*
X148864072Y-96275443D01*
X148806805Y-96036908D01*
X148712927Y-95810268D01*
X148584752Y-95601104D01*
X148425433Y-95414567D01*
X148344929Y-95345809D01*
X148306121Y-95286360D01*
X148305615Y-95215366D01*
X148343571Y-95155367D01*
X148344879Y-95154232D01*
X148425433Y-95085433D01*
X148584752Y-94898896D01*
X148712927Y-94689732D01*
X148806805Y-94463092D01*
X148864072Y-94224557D01*
X148883319Y-93980000D01*
X148864072Y-93735443D01*
X148806805Y-93496908D01*
X148712927Y-93270268D01*
X148584752Y-93061104D01*
X148425433Y-92874567D01*
X148344929Y-92805809D01*
X148306121Y-92746360D01*
X148305615Y-92675366D01*
X148343571Y-92615367D01*
X148344879Y-92614232D01*
X148425433Y-92545433D01*
X148584752Y-92358896D01*
X148712927Y-92149732D01*
X148806805Y-91923092D01*
X148864072Y-91684557D01*
X148883319Y-91440000D01*
X148864072Y-91195443D01*
X148806805Y-90956908D01*
X148712927Y-90730268D01*
X148584752Y-90521104D01*
X148425433Y-90334567D01*
X148425430Y-90334565D01*
X148425429Y-90334563D01*
X148344930Y-90265809D01*
X148306121Y-90206359D01*
X148305615Y-90135364D01*
X148343572Y-90075365D01*
X148344790Y-90074308D01*
X148425433Y-90005433D01*
X148584752Y-89818896D01*
X148712927Y-89609732D01*
X148806805Y-89383092D01*
X148864072Y-89144557D01*
X148883319Y-88900000D01*
X148864072Y-88655443D01*
X148861805Y-88646000D01*
X149843917Y-88646000D01*
X150818314Y-88646000D01*
X150802359Y-88661955D01*
X150744835Y-88774852D01*
X150725014Y-88900000D01*
X150744835Y-89025148D01*
X150802359Y-89138045D01*
X150818314Y-89154000D01*
X149843918Y-89154000D01*
X149896186Y-89349068D01*
X149896188Y-89349073D01*
X149992912Y-89556498D01*
X150124184Y-89743974D01*
X150124189Y-89743980D01*
X150286019Y-89905810D01*
X150286025Y-89905815D01*
X150473501Y-90037087D01*
X150680926Y-90133811D01*
X150680931Y-90133813D01*
X150876000Y-90186081D01*
X150876000Y-89211686D01*
X150891955Y-89227641D01*
X151004852Y-89285165D01*
X151098519Y-89300000D01*
X151161481Y-89300000D01*
X151255148Y-89285165D01*
X151368045Y-89227641D01*
X151384000Y-89211686D01*
X151384000Y-90186081D01*
X151579068Y-90133813D01*
X151579073Y-90133811D01*
X151786498Y-90037087D01*
X151973974Y-89905815D01*
X151973980Y-89905810D01*
X152135810Y-89743980D01*
X152135815Y-89743974D01*
X152267087Y-89556498D01*
X152285805Y-89516359D01*
X152332722Y-89463074D01*
X152400999Y-89443613D01*
X152468959Y-89464155D01*
X152514195Y-89516359D01*
X152532912Y-89556498D01*
X152664184Y-89743974D01*
X152664189Y-89743980D01*
X152826019Y-89905810D01*
X152826025Y-89905815D01*
X153013501Y-90037087D01*
X153220926Y-90133811D01*
X153220931Y-90133813D01*
X153416000Y-90186081D01*
X153416000Y-89211686D01*
X153431955Y-89227641D01*
X153544852Y-89285165D01*
X153638519Y-89300000D01*
X153701481Y-89300000D01*
X153795148Y-89285165D01*
X153908045Y-89227641D01*
X153924000Y-89211686D01*
X153924000Y-90186081D01*
X154119068Y-90133813D01*
X154119073Y-90133811D01*
X154326498Y-90037087D01*
X154513974Y-89905815D01*
X154513980Y-89905810D01*
X154675810Y-89743980D01*
X154675815Y-89743974D01*
X154807087Y-89556498D01*
X154903811Y-89349073D01*
X154903813Y-89349068D01*
X154956082Y-89154000D01*
X153981686Y-89154000D01*
X153997641Y-89138045D01*
X154055165Y-89025148D01*
X154074986Y-88900000D01*
X154055165Y-88774852D01*
X153997641Y-88661955D01*
X153981686Y-88646000D01*
X154956082Y-88646000D01*
X154903813Y-88450931D01*
X154903811Y-88450926D01*
X154807087Y-88243501D01*
X154675815Y-88056025D01*
X154675810Y-88056019D01*
X154513980Y-87894189D01*
X154513974Y-87894184D01*
X154326498Y-87762912D01*
X154119073Y-87666188D01*
X154119071Y-87666187D01*
X153924000Y-87613917D01*
X153924000Y-88588314D01*
X153908045Y-88572359D01*
X153795148Y-88514835D01*
X153701481Y-88500000D01*
X153638519Y-88500000D01*
X153544852Y-88514835D01*
X153431955Y-88572359D01*
X153416000Y-88588314D01*
X153416000Y-87613917D01*
X153415999Y-87613917D01*
X153220928Y-87666187D01*
X153220926Y-87666188D01*
X153013501Y-87762912D01*
X152826025Y-87894184D01*
X152826019Y-87894189D01*
X152664189Y-88056019D01*
X152664184Y-88056025D01*
X152532910Y-88243503D01*
X152514194Y-88283641D01*
X152467277Y-88336925D01*
X152399000Y-88356386D01*
X152331040Y-88335844D01*
X152285806Y-88283641D01*
X152267089Y-88243503D01*
X152135815Y-88056025D01*
X152135810Y-88056019D01*
X151973980Y-87894189D01*
X151973974Y-87894184D01*
X151786498Y-87762912D01*
X151579073Y-87666188D01*
X151579071Y-87666187D01*
X151384000Y-87613917D01*
X151384000Y-88588313D01*
X151368045Y-88572359D01*
X151255148Y-88514835D01*
X151161481Y-88500000D01*
X151098519Y-88500000D01*
X151004852Y-88514835D01*
X150891955Y-88572359D01*
X150876000Y-88588314D01*
X150876000Y-87613917D01*
X150875999Y-87613917D01*
X150680928Y-87666187D01*
X150680926Y-87666188D01*
X150473501Y-87762912D01*
X150286025Y-87894184D01*
X150286019Y-87894189D01*
X150124189Y-88056019D01*
X150124184Y-88056025D01*
X149992912Y-88243501D01*
X149896188Y-88450926D01*
X149896186Y-88450931D01*
X149843917Y-88646000D01*
X148861805Y-88646000D01*
X148806805Y-88416908D01*
X148712927Y-88190268D01*
X148584752Y-87981104D01*
X148425433Y-87794567D01*
X148344929Y-87725809D01*
X148306121Y-87666360D01*
X148305615Y-87595366D01*
X148343571Y-87535367D01*
X148344879Y-87534232D01*
X148425433Y-87465433D01*
X148584752Y-87278896D01*
X148712927Y-87069732D01*
X148806805Y-86843092D01*
X148864072Y-86604557D01*
X148883319Y-86360000D01*
X148864072Y-86115443D01*
X148806805Y-85876908D01*
X148712927Y-85650268D01*
X148584752Y-85441104D01*
X148425433Y-85254567D01*
X148344929Y-85185809D01*
X148306121Y-85126360D01*
X148305615Y-85055366D01*
X148343571Y-84995367D01*
X148344879Y-84994232D01*
X148425433Y-84925433D01*
X148584752Y-84738896D01*
X148712927Y-84529732D01*
X148806805Y-84303092D01*
X148864072Y-84064557D01*
X148883319Y-83820000D01*
X148864072Y-83575443D01*
X148807286Y-83338911D01*
X148810833Y-83268006D01*
X148852153Y-83210272D01*
X148918127Y-83184042D01*
X148929805Y-83183500D01*
X152316147Y-83183500D01*
X152331988Y-83185249D01*
X152332016Y-83184956D01*
X152339901Y-83185700D01*
X152339909Y-83185702D01*
X152401208Y-83183775D01*
X152408976Y-83183531D01*
X152410955Y-83183500D01*
X152439851Y-83183500D01*
X152439856Y-83183500D01*
X152446818Y-83182619D01*
X152452719Y-83182154D01*
X152499889Y-83180673D01*
X152519347Y-83175019D01*
X152538694Y-83171013D01*
X152558797Y-83168474D01*
X152602679Y-83151099D01*
X152608274Y-83149183D01*
X152636816Y-83140891D01*
X152653591Y-83136019D01*
X152653595Y-83136017D01*
X152671026Y-83125708D01*
X152688780Y-83117009D01*
X152707617Y-83109552D01*
X152745786Y-83081818D01*
X152750744Y-83078562D01*
X152791362Y-83054542D01*
X152805685Y-83040218D01*
X152820724Y-83027374D01*
X152837107Y-83015472D01*
X152867188Y-82979108D01*
X152871178Y-82974725D01*
X153220500Y-82625404D01*
X153282812Y-82591379D01*
X153309595Y-82588500D01*
X154518632Y-82588500D01*
X154518638Y-82588500D01*
X154518645Y-82588499D01*
X154518649Y-82588499D01*
X154579196Y-82581990D01*
X154579199Y-82581989D01*
X154579201Y-82581989D01*
X154716204Y-82530889D01*
X154780548Y-82482722D01*
X154833261Y-82443261D01*
X154920887Y-82326207D01*
X154920887Y-82326206D01*
X154920889Y-82326204D01*
X154971989Y-82189201D01*
X154978500Y-82128638D01*
X154978500Y-80431362D01*
X154976958Y-80417017D01*
X154971990Y-80370803D01*
X154971988Y-80370795D01*
X154935811Y-80273804D01*
X154920889Y-80233796D01*
X154920780Y-80233650D01*
X154904206Y-80211509D01*
X154879395Y-80144988D01*
X154894487Y-80075614D01*
X154944689Y-80025412D01*
X155005074Y-80010000D01*
X156718500Y-80010000D01*
X156786621Y-80030002D01*
G37*
G04 #@! TD.AperFunction*
G04 #@! TA.AperFunction,Conductor*
G36*
X131180000Y-101505406D02*
G01*
X131180000Y-101694594D01*
X131213883Y-101854000D01*
X130169010Y-101854000D01*
X130175772Y-101841116D01*
X130215000Y-101681960D01*
X130215000Y-101518040D01*
X130175772Y-101358884D01*
X130169010Y-101346000D01*
X131213883Y-101346000D01*
X131180000Y-101505406D01*
G37*
G04 #@! TD.AperFunction*
G04 #@! TA.AperFunction,Conductor*
G36*
X133799160Y-78716246D02*
G01*
X133799241Y-78715969D01*
X133806852Y-78718180D01*
X133806855Y-78718181D01*
X133853477Y-78725564D01*
X133859262Y-78726763D01*
X133904970Y-78738500D01*
X133925224Y-78738500D01*
X133944934Y-78740051D01*
X133947141Y-78740400D01*
X133964943Y-78743220D01*
X133999017Y-78739999D01*
X134011917Y-78738780D01*
X134017850Y-78738500D01*
X140210500Y-78738500D01*
X140278621Y-78758502D01*
X140325114Y-78812158D01*
X140336500Y-78864500D01*
X140336500Y-81831146D01*
X140334751Y-81846988D01*
X140335044Y-81847016D01*
X140334298Y-81854908D01*
X140336469Y-81923974D01*
X140336500Y-81925953D01*
X140336500Y-81954851D01*
X140336501Y-81954872D01*
X140337378Y-81961820D01*
X140337844Y-81967732D01*
X140339326Y-82014888D01*
X140339327Y-82014893D01*
X140344977Y-82034339D01*
X140348986Y-82053697D01*
X140351525Y-82073793D01*
X140351526Y-82073799D01*
X140368893Y-82117662D01*
X140370816Y-82123279D01*
X140383982Y-82168593D01*
X140394294Y-82186031D01*
X140402988Y-82203779D01*
X140410444Y-82222609D01*
X140410450Y-82222620D01*
X140438177Y-82260783D01*
X140441437Y-82265746D01*
X140465460Y-82306365D01*
X140479779Y-82320684D01*
X140492617Y-82335714D01*
X140502156Y-82348843D01*
X140504528Y-82352107D01*
X140532794Y-82375491D01*
X140540886Y-82382185D01*
X140545267Y-82386171D01*
X140823289Y-82664193D01*
X141097753Y-82938657D01*
X141107720Y-82951097D01*
X141107947Y-82950910D01*
X141112999Y-82957017D01*
X141113000Y-82957018D01*
X141140441Y-82982787D01*
X141163388Y-83004335D01*
X141164777Y-83005681D01*
X141185231Y-83026135D01*
X141190770Y-83030431D01*
X141195282Y-83034285D01*
X141216853Y-83054542D01*
X141229678Y-83066585D01*
X141229682Y-83066588D01*
X141247430Y-83076345D01*
X141263957Y-83087201D01*
X141279960Y-83099614D01*
X141323259Y-83118351D01*
X141328585Y-83120960D01*
X141369935Y-83143693D01*
X141369938Y-83143694D01*
X141369940Y-83143695D01*
X141389562Y-83148733D01*
X141408263Y-83155135D01*
X141420814Y-83160567D01*
X141426852Y-83163180D01*
X141426853Y-83163180D01*
X141426855Y-83163181D01*
X141473477Y-83170564D01*
X141479262Y-83171763D01*
X141524970Y-83183500D01*
X141545224Y-83183500D01*
X141564934Y-83185051D01*
X141567141Y-83185400D01*
X141584943Y-83188220D01*
X141619472Y-83184956D01*
X141631917Y-83183780D01*
X141637850Y-83183500D01*
X143435255Y-83183500D01*
X143503376Y-83203502D01*
X143549869Y-83257158D01*
X143559973Y-83327432D01*
X143549449Y-83362752D01*
X143545717Y-83370754D01*
X143545715Y-83370759D01*
X143486457Y-83591913D01*
X143466502Y-83820000D01*
X143486457Y-84048086D01*
X143545715Y-84269240D01*
X143545717Y-84269246D01*
X143642477Y-84476749D01*
X143728771Y-84599990D01*
X143773802Y-84664300D01*
X143935700Y-84826198D01*
X144123251Y-84957523D01*
X144158359Y-84973894D01*
X144162457Y-84975805D01*
X144215742Y-85022722D01*
X144235203Y-85090999D01*
X144214661Y-85158959D01*
X144162457Y-85204195D01*
X144123250Y-85222477D01*
X143935703Y-85353799D01*
X143935697Y-85353804D01*
X143773804Y-85515697D01*
X143773799Y-85515703D01*
X143642477Y-85703250D01*
X143545717Y-85910753D01*
X143545715Y-85910759D01*
X143486457Y-86131913D01*
X143466502Y-86360000D01*
X143486457Y-86588086D01*
X143545715Y-86809240D01*
X143545717Y-86809246D01*
X143642477Y-87016749D01*
X143728771Y-87139990D01*
X143773802Y-87204300D01*
X143935700Y-87366198D01*
X144123251Y-87497523D01*
X144158359Y-87513894D01*
X144162457Y-87515805D01*
X144215742Y-87562722D01*
X144235203Y-87630999D01*
X144214661Y-87698959D01*
X144162457Y-87744195D01*
X144123250Y-87762477D01*
X143935703Y-87893799D01*
X143935697Y-87893804D01*
X143773804Y-88055697D01*
X143773799Y-88055703D01*
X143663819Y-88212771D01*
X143608362Y-88257099D01*
X143560606Y-88266500D01*
X142404500Y-88266500D01*
X142336379Y-88246498D01*
X142289886Y-88192842D01*
X142278500Y-88140500D01*
X142278500Y-88051367D01*
X142278499Y-88051350D01*
X142271990Y-87990803D01*
X142271988Y-87990795D01*
X142235811Y-87893804D01*
X142220889Y-87853796D01*
X142220888Y-87853794D01*
X142220887Y-87853792D01*
X142133261Y-87736738D01*
X142016207Y-87649112D01*
X142016202Y-87649110D01*
X141879204Y-87598011D01*
X141879196Y-87598009D01*
X141818649Y-87591500D01*
X141818638Y-87591500D01*
X140121362Y-87591500D01*
X140121350Y-87591500D01*
X140060803Y-87598009D01*
X140060795Y-87598011D01*
X139923797Y-87649110D01*
X139923792Y-87649112D01*
X139806738Y-87736738D01*
X139719112Y-87853792D01*
X139719110Y-87853797D01*
X139668011Y-87990795D01*
X139668009Y-87990803D01*
X139661500Y-88051350D01*
X139661500Y-88140500D01*
X139641498Y-88208621D01*
X139587842Y-88255114D01*
X139535500Y-88266500D01*
X139229500Y-88266500D01*
X139161379Y-88246498D01*
X139114886Y-88192842D01*
X139103500Y-88140500D01*
X139103500Y-88051367D01*
X139103499Y-88051350D01*
X139096990Y-87990803D01*
X139096988Y-87990795D01*
X139060811Y-87893804D01*
X139045889Y-87853796D01*
X139045888Y-87853794D01*
X139045887Y-87853792D01*
X138958261Y-87736738D01*
X138841207Y-87649112D01*
X138841202Y-87649110D01*
X138704204Y-87598011D01*
X138704196Y-87598009D01*
X138643649Y-87591500D01*
X138643638Y-87591500D01*
X136946362Y-87591500D01*
X136946350Y-87591500D01*
X136885803Y-87598009D01*
X136885795Y-87598011D01*
X136748797Y-87649110D01*
X136748792Y-87649112D01*
X136631738Y-87736738D01*
X136544112Y-87853792D01*
X136544110Y-87853797D01*
X136493011Y-87990795D01*
X136493009Y-87990803D01*
X136486500Y-88051350D01*
X136486500Y-88140500D01*
X136466498Y-88208621D01*
X136412842Y-88255114D01*
X136360500Y-88266500D01*
X135839394Y-88266500D01*
X135771273Y-88246498D01*
X135736181Y-88212771D01*
X135635073Y-88068375D01*
X135626198Y-88055700D01*
X135464300Y-87893802D01*
X135276749Y-87762477D01*
X135237543Y-87744195D01*
X135069246Y-87665717D01*
X135069240Y-87665715D01*
X134916364Y-87624752D01*
X134848087Y-87606457D01*
X134620000Y-87586502D01*
X134391913Y-87606457D01*
X134170759Y-87665715D01*
X134170753Y-87665717D01*
X133963250Y-87762477D01*
X133775703Y-87893799D01*
X133613805Y-88055696D01*
X133613802Y-88055699D01*
X133613802Y-88055700D01*
X133604933Y-88068367D01*
X133604927Y-88068375D01*
X133549467Y-88112700D01*
X133478848Y-88120006D01*
X133415489Y-88087972D01*
X133394284Y-88061934D01*
X133390663Y-88056025D01*
X133344752Y-87981104D01*
X133185433Y-87794567D01*
X133185430Y-87794565D01*
X133185429Y-87794563D01*
X133104930Y-87725809D01*
X133066121Y-87666359D01*
X133065615Y-87595364D01*
X133103572Y-87535365D01*
X133104790Y-87534308D01*
X133185433Y-87465433D01*
X133344752Y-87278896D01*
X133472927Y-87069732D01*
X133566805Y-86843092D01*
X133624072Y-86604557D01*
X133643319Y-86360000D01*
X133624072Y-86115443D01*
X133566805Y-85876908D01*
X133472927Y-85650268D01*
X133344752Y-85441104D01*
X133185433Y-85254567D01*
X133185430Y-85254565D01*
X133185429Y-85254563D01*
X133104930Y-85185809D01*
X133066121Y-85126359D01*
X133065615Y-85055364D01*
X133103572Y-84995365D01*
X133104790Y-84994308D01*
X133185433Y-84925433D01*
X133344752Y-84738896D01*
X133472927Y-84529732D01*
X133566805Y-84303092D01*
X133624072Y-84064557D01*
X133643319Y-83820000D01*
X133624072Y-83575443D01*
X133566805Y-83336908D01*
X133472927Y-83110268D01*
X133344752Y-82901104D01*
X133185433Y-82714567D01*
X133185430Y-82714565D01*
X133185429Y-82714563D01*
X133104930Y-82645809D01*
X133066121Y-82586359D01*
X133065615Y-82515364D01*
X133103572Y-82455365D01*
X133104790Y-82454308D01*
X133185433Y-82385433D01*
X133344752Y-82198896D01*
X133472927Y-81989732D01*
X133566805Y-81763092D01*
X133624072Y-81524557D01*
X133643319Y-81280000D01*
X133624072Y-81035443D01*
X133566805Y-80796908D01*
X133472927Y-80570268D01*
X133344752Y-80361104D01*
X133185433Y-80174567D01*
X133104929Y-80105809D01*
X133066121Y-80046360D01*
X133065615Y-79975366D01*
X133103571Y-79915367D01*
X133104879Y-79914232D01*
X133185433Y-79845433D01*
X133344752Y-79658896D01*
X133472927Y-79449732D01*
X133566805Y-79223092D01*
X133624072Y-78984557D01*
X133636532Y-78826234D01*
X133661816Y-78759897D01*
X133718954Y-78717757D01*
X133789804Y-78713198D01*
X133799160Y-78716246D01*
G37*
G04 #@! TD.AperFunction*
G04 #@! TA.AperFunction,Conductor*
G36*
X145984501Y-84632018D02*
G01*
X146005715Y-84658065D01*
X146055248Y-84738896D01*
X146214567Y-84925433D01*
X146273545Y-84975805D01*
X146295069Y-84994189D01*
X146333878Y-85053640D01*
X146334384Y-85124635D01*
X146296428Y-85184633D01*
X146295069Y-85185811D01*
X146214567Y-85254567D01*
X146055245Y-85441107D01*
X146055242Y-85441111D01*
X146005714Y-85521934D01*
X145953066Y-85569566D01*
X145883025Y-85581172D01*
X145817827Y-85553068D01*
X145795069Y-85528369D01*
X145786198Y-85515700D01*
X145624300Y-85353802D01*
X145436749Y-85222477D01*
X145397543Y-85204195D01*
X145344258Y-85157279D01*
X145324796Y-85089002D01*
X145345337Y-85021042D01*
X145397543Y-84975805D01*
X145399997Y-84974660D01*
X145436749Y-84957523D01*
X145624300Y-84826198D01*
X145786198Y-84664300D01*
X145795067Y-84651632D01*
X145850519Y-84607304D01*
X145921138Y-84599990D01*
X145984501Y-84632018D01*
G37*
G04 #@! TD.AperFunction*
G04 #@! TA.AperFunction,Conductor*
G36*
X143716253Y-69358502D02*
G01*
X143751344Y-69392228D01*
X143769436Y-69418065D01*
X143773802Y-69424300D01*
X143935700Y-69586198D01*
X144123251Y-69717523D01*
X144158359Y-69733894D01*
X144162457Y-69735805D01*
X144215742Y-69782722D01*
X144235203Y-69850999D01*
X144214661Y-69918959D01*
X144162457Y-69964195D01*
X144123250Y-69982477D01*
X143935703Y-70113799D01*
X143935697Y-70113804D01*
X143773804Y-70275697D01*
X143773799Y-70275703D01*
X143642477Y-70463250D01*
X143545717Y-70670753D01*
X143545712Y-70670767D01*
X143498588Y-70846633D01*
X143465977Y-70903116D01*
X143121336Y-71247757D01*
X143108901Y-71257720D01*
X143109089Y-71257947D01*
X143102982Y-71262999D01*
X143055694Y-71313355D01*
X143054319Y-71314774D01*
X143033863Y-71335231D01*
X143029560Y-71340777D01*
X143025714Y-71345279D01*
X142993417Y-71379674D01*
X142993411Y-71379683D01*
X142983651Y-71397435D01*
X142972803Y-71413950D01*
X142960386Y-71429958D01*
X142941645Y-71473264D01*
X142939034Y-71478594D01*
X142916305Y-71519939D01*
X142916303Y-71519944D01*
X142911267Y-71539559D01*
X142904864Y-71558262D01*
X142896819Y-71576852D01*
X142889437Y-71623456D01*
X142888233Y-71629268D01*
X142876500Y-71674968D01*
X142876500Y-71695223D01*
X142874949Y-71714933D01*
X142871780Y-71734942D01*
X142871780Y-71734943D01*
X142876220Y-71781917D01*
X142876500Y-71787850D01*
X142876500Y-72315254D01*
X142856498Y-72383375D01*
X142802842Y-72429868D01*
X142732568Y-72439972D01*
X142697255Y-72429451D01*
X142689252Y-72425719D01*
X142689240Y-72425715D01*
X142531225Y-72383375D01*
X142468087Y-72366457D01*
X142240000Y-72346502D01*
X142239999Y-72346502D01*
X142011913Y-72366457D01*
X141790759Y-72425715D01*
X141790753Y-72425717D01*
X141583250Y-72522477D01*
X141395703Y-72653799D01*
X141395697Y-72653804D01*
X141233804Y-72815697D01*
X141233799Y-72815703D01*
X141102477Y-73003250D01*
X141005717Y-73210753D01*
X141005715Y-73210759D01*
X140946457Y-73431913D01*
X140926502Y-73660000D01*
X140946457Y-73888090D01*
X140963459Y-73951540D01*
X140961769Y-74022516D01*
X140930847Y-74073246D01*
X140581336Y-74422757D01*
X140568901Y-74432721D01*
X140569089Y-74432948D01*
X140562979Y-74438002D01*
X140515694Y-74488355D01*
X140514319Y-74489774D01*
X140493863Y-74510231D01*
X140489560Y-74515777D01*
X140485714Y-74520279D01*
X140453417Y-74554674D01*
X140453411Y-74554683D01*
X140443651Y-74572435D01*
X140432803Y-74588950D01*
X140420386Y-74604958D01*
X140401645Y-74648264D01*
X140399034Y-74653594D01*
X140376305Y-74694939D01*
X140376303Y-74694944D01*
X140371267Y-74714559D01*
X140364864Y-74733262D01*
X140356819Y-74751852D01*
X140349437Y-74798456D01*
X140348233Y-74804268D01*
X140336500Y-74849968D01*
X140336500Y-74870223D01*
X140334949Y-74889933D01*
X140331780Y-74909942D01*
X140331780Y-74909943D01*
X140336220Y-74956917D01*
X140336500Y-74962850D01*
X140336500Y-77345500D01*
X140316498Y-77413621D01*
X140262842Y-77460114D01*
X140210500Y-77471500D01*
X135485031Y-77471500D01*
X135416910Y-77451498D01*
X135370417Y-77397842D01*
X135360313Y-77327568D01*
X135389807Y-77262988D01*
X135412760Y-77242287D01*
X135423064Y-77235071D01*
X135464300Y-77206198D01*
X135626198Y-77044300D01*
X135757523Y-76856749D01*
X135854284Y-76649243D01*
X135913543Y-76428087D01*
X135933498Y-76200000D01*
X135913543Y-75971913D01*
X135854284Y-75750757D01*
X135757523Y-75543251D01*
X135626198Y-75355700D01*
X135464300Y-75193802D01*
X135464293Y-75193797D01*
X135432228Y-75171344D01*
X135387900Y-75115887D01*
X135378500Y-75068132D01*
X135378500Y-74791867D01*
X135398502Y-74723746D01*
X135432228Y-74688654D01*
X135464300Y-74666198D01*
X135626198Y-74504300D01*
X135757523Y-74316749D01*
X135854284Y-74109243D01*
X135913543Y-73888087D01*
X135933498Y-73660000D01*
X135913543Y-73431913D01*
X135854284Y-73210757D01*
X135757523Y-73003251D01*
X135626198Y-72815700D01*
X135464300Y-72653802D01*
X135464293Y-72653797D01*
X135432228Y-72631344D01*
X135387900Y-72575887D01*
X135378500Y-72528132D01*
X135378500Y-70216371D01*
X135398502Y-70148250D01*
X135415405Y-70127276D01*
X136167276Y-69375405D01*
X136229588Y-69341379D01*
X136256371Y-69338500D01*
X143648132Y-69338500D01*
X143716253Y-69358502D01*
G37*
G04 #@! TD.AperFunction*
M02*
